<?xml version="1.0" encoding="UTF-8" standalone="no"?><!DOCTYPE svg PUBLIC "-//W3C//DTD SVG 1.1//EN" "http://www.w3.org/Graphics/SVG/1.1/DTD/svg11.dtd"><svg width="100%" height="100%" viewBox="0 0 504 492" version="1.1" xmlns="http://www.w3.org/2000/svg" xmlns:xlink="http://www.w3.org/1999/xlink" xml:space="preserve" xmlns:serif="http://www.serif.com/" style="fill-rule:evenodd;clip-rule:evenodd;stroke-linejoin:round;stroke-miterlimit:2;"><g><path d="M251.871,0.858c-138.946,0 -251.617,112.646 -251.617,251.617c0,111.167 72.096,205.483 172.071,238.754c12.575,2.329 17.192,-5.458 17.192,-12.104c-0,-6 -0.234,-25.821 -0.342,-46.846c-70,15.221 -84.771,-29.687 -84.771,-29.687c-11.446,-29.08 -27.937,-36.817 -27.937,-36.817c-22.83,-15.617 1.72,-15.296 1.72,-15.296c25.267,1.775 38.571,25.934 38.571,25.934c22.442,38.462 58.863,27.341 73.221,20.912c2.258,-16.258 8.779,-27.362 15.975,-33.646c-55.887,-6.358 -114.637,-27.937 -114.637,-124.35c-0,-27.466 9.829,-49.916 25.925,-67.537c-2.613,-6.338 -11.225,-31.929 2.437,-66.588c0,0 21.129,-6.758 69.213,25.796c20.071,-5.575 41.595,-8.371 62.979,-8.471c21.383,0.1 42.925,2.896 63.033,8.471c48.025,-32.554 69.125,-25.796 69.125,-25.796c13.696,34.659 5.079,60.25 2.467,66.588c16.133,17.621 25.896,40.071 25.896,67.537c-0,96.646 -58.863,117.921 -114.892,124.15c9.025,7.808 17.067,23.121 17.067,46.596c-0,33.667 -0.292,60.762 -0.292,69.05c-0,6.696 4.529,14.542 17.283,12.071c99.921,-33.309 171.925,-127.588 171.925,-238.721c0,-138.971 -112.654,-251.617 -251.612,-251.617Z" style="fill:#181717;"/><path d="M95.554,362.121c-0.554,1.254 -2.521,1.629 -4.312,0.771c-1.825,-0.825 -2.85,-2.53 -2.259,-3.784c0.542,-1.283 2.513,-1.641 4.334,-0.783c1.829,0.821 2.87,2.542 2.237,3.796Z" style="fill:#181717;fill-rule:nonzero;"/><path d="M105.746,373.492c-1.2,1.108 -3.546,0.591 -5.138,-1.167c-1.645,-1.754 -1.954,-4.1 -0.737,-5.229c1.237,-1.109 3.512,-0.588 5.162,1.166c1.646,1.776 1.967,4.1 0.713,5.23Z" style="fill:#181717;fill-rule:nonzero;"/><path d="M115.667,387.979c-1.542,1.075 -4.063,0.071 -5.621,-2.167c-1.542,-2.237 -1.542,-4.924 0.033,-6c1.563,-1.075 4.046,-0.104 5.625,2.113c1.538,2.275 1.538,4.958 -0.037,6.054Z" style="fill:#181717;fill-rule:nonzero;"/><path d="M129.258,401.979c-1.379,1.521 -4.316,1.113 -6.466,-0.962c-2.2,-2.029 -2.813,-4.909 -1.43,-6.429c1.396,-1.525 4.35,-1.096 6.517,0.962c2.183,2.025 2.85,4.925 1.379,6.429Z" style="fill:#181717;fill-rule:nonzero;"/><path d="M148.008,410.108c-0.608,1.971 -3.437,2.867 -6.287,2.03c-2.846,-0.863 -4.709,-3.171 -4.134,-5.163c0.592,-1.983 3.434,-2.917 6.305,-2.021c2.841,0.859 4.708,3.15 4.116,5.154Z" style="fill:#181717;fill-rule:nonzero;"/><path d="M168.6,411.617c0.071,2.075 -2.346,3.795 -5.338,3.833c-3.008,0.067 -5.441,-1.612 -5.475,-3.654c0,-2.096 2.363,-3.8 5.371,-3.85c2.992,-0.059 5.442,1.608 5.442,3.671Z" style="fill:#181717;fill-rule:nonzero;"/><path d="M187.762,408.354c0.359,2.025 -1.72,4.104 -4.691,4.659c-2.921,0.533 -5.625,-0.717 -5.996,-2.725c-0.362,-2.076 1.754,-4.155 4.671,-4.692c2.975,-0.517 5.637,0.7 6.016,2.758Z" style="fill:#181717;fill-rule:nonzero;"/></g></svg>