<?xml version="1.0" encoding="UTF-8" standalone="no"?><!DOCTYPE svg PUBLIC "-//W3C//DTD SVG 1.1//EN" "http://www.w3.org/Graphics/SVG/1.1/DTD/svg11.dtd"><svg width="100%" height="100%" viewBox="0 0 467 471" version="1.1" xmlns="http://www.w3.org/2000/svg" xmlns:xlink="http://www.w3.org/1999/xlink" xml:space="preserve" xmlns:serif="http://www.serif.com/" style="fill-rule:evenodd;clip-rule:evenodd;stroke-linejoin:round;stroke-miterlimit:2;"><g><path id="path1948" d="M231.292,1.658c-19.098,0.089 -37.337,1.718 -53.385,4.558c-47.276,8.352 -55.859,25.833 -55.859,58.072l-0,42.579l111.718,-0l0,14.192l-153.646,0c-32.468,0 -60.899,19.516 -69.791,56.641c-10.258,42.554 -10.713,69.108 -0,113.542c7.941,33.074 26.906,56.64 59.375,56.64l38.411,0l0,-51.041c0,-36.875 31.905,-69.402 69.792,-69.402l111.588,0c31.063,0 55.86,-25.575 55.86,-56.77l-0,-106.381c-0,-30.276 -25.542,-53.019 -55.86,-58.072c-19.191,-3.195 -39.104,-4.647 -58.203,-4.558Zm-60.416,34.245c11.539,0 20.963,9.578 20.963,21.354c0,11.735 -9.424,21.224 -20.963,21.224c-11.582,0 -20.964,-9.489 -20.964,-21.224c0,-11.776 9.382,-21.354 20.964,-21.354Z" style="fill:url(#_Linear1);fill-rule:nonzero;"/><path id="path1950" d="M359.287,121.059l0,49.61c0,38.461 -32.608,70.833 -69.792,70.833l-111.588,-0c-30.566,-0 -55.859,26.16 -55.859,56.771l-0,106.38c-0,30.276 26.327,48.085 55.859,56.771c35.364,10.398 69.276,12.277 111.588,-0c28.126,-8.143 55.86,-24.532 55.86,-56.771l-0,-42.578l-111.589,-0l0,-14.193l167.448,0c32.469,0 44.568,-22.647 55.86,-56.64c11.663,-34.996 11.167,-68.65 -0,-113.542c-8.025,-32.323 -23.35,-56.641 -55.86,-56.641l-41.927,0Zm-62.76,269.401c11.581,0 20.963,9.49 20.963,21.224c0,11.777 -9.382,21.354 -20.963,21.354c-11.54,0 -20.964,-9.577 -20.964,-21.354c0,-11.734 9.424,-21.224 20.964,-21.224Z" style="fill:url(#_Linear2);fill-rule:nonzero;"/></g><defs><linearGradient id="_Linear1" x1="0" y1="0" x2="1" y2="0" gradientUnits="userSpaceOnUse" gradientTransform="matrix(255.526,221.968,-221.968,255.526,2.46404,1.65439)"><stop offset="0" style="stop-color:#5a9fd4;stop-opacity:1"/><stop offset="1" style="stop-color:#306998;stop-opacity:1"/></linearGradient><linearGradient id="_Linear2" x1="0" y1="0" x2="1" y2="0" gradientUnits="userSpaceOnUse" gradientTransform="matrix(-91.2481,-130.347,130.347,-91.2481,293.842,408.105)"><stop offset="0" style="stop-color:#ffd43b;stop-opacity:1"/><stop offset="1" style="stop-color:#ffe873;stop-opacity:1"/></linearGradient></defs></svg>