<?xml version="1.0" encoding="UTF-8" standalone="no"?>
<svg
   xmlns:dc="http://purl.org/dc/elements/1.1/"
   xmlns:cc="http://creativecommons.org/ns#"
   xmlns:rdf="http://www.w3.org/1999/02/22-rdf-syntax-ns#"
   xmlns:svg="http://www.w3.org/2000/svg"
   xmlns="http://www.w3.org/2000/svg"
   xmlns:xlink="http://www.w3.org/1999/xlink"
   xmlns:sodipodi="http://sodipodi.sourceforge.net/DTD/sodipodi-0.dtd"
   xmlns:inkscape="http://www.inkscape.org/namespaces/inkscape"
   viewBox="0 0 221.25654 132.85001"
   version="1.1"
   id="svg345"
   sodipodi:docname="stencil-multi-doc.svg"
   width="221.25655"
   height="132.85001"
   inkscape:version="0.92.3 (unknown)">
  <metadata
     id="metadata349">
    <rdf:RDF>
      <cc:Work
         rdf:about="">
        <dc:format>image/svg+xml</dc:format>
        <dc:type
           rdf:resource="http://purl.org/dc/dcmitype/StillImage" />
        <dc:title>Schematic_Stencil_doc</dc:title>
      </cc:Work>
    </rdf:RDF>
  </metadata>
  <sodipodi:namedview
     pagecolor="#ffffff"
     bordercolor="#666666"
     borderopacity="1"
     objecttolerance="10"
     gridtolerance="10"
     guidetolerance="10"
     inkscape:pageopacity="0"
     inkscape:pageshadow="2"
     inkscape:window-width="1318"
     inkscape:window-height="892"
     id="namedview347"
     showgrid="false"
     fit-margin-top="0"
     fit-margin-left="0"
     fit-margin-right="0"
     fit-margin-bottom="0"
     inkscape:zoom="1.6599612"
     inkscape:cx="-20.292609"
     inkscape:cy="53.963664"
     inkscape:window-x="61"
     inkscape:window-y="34"
     inkscape:window-maximized="0"
     inkscape:current-layer="svg345" />
  <defs
     id="defs26">
    <style
       id="style2">.cls-1{isolation:isolate;}.cls-11,.cls-2{fill:#e6e7e8;}.cls-3{opacity:0.1;}.cls-12,.cls-4{fill:#fff;}.cls-4{stroke:#d1d3d4;stroke-width:0.2px;}.cls-14,.cls-16,.cls-25,.cls-4{stroke-miterlimit:10;}.cls-5,.cls-7{opacity:0.2;}.cls-6,.cls-7{fill:#231f20;}.cls-8{fill:#2568ef;}.cls-11,.cls-9{mix-blend-mode:multiply;}.cls-10{fill:#6f6;}.cls-13{fill:url(#linear-gradient);}.cls-14,.cls-16{fill:none;}.cls-14,.cls-16,.cls-25{stroke:#fff;stroke-width:0.25px;}.cls-14{stroke-linecap:round;}.cls-14,.cls-18,.cls-19{opacity:0.4;}.cls-15,.cls-19{fill:#6c6;}.cls-16{opacity:0.5;}.cls-17{fill:url(#linear-gradient-2);}.cls-20{fill:url(#linear-gradient-3);}.cls-21{fill:url(#linear-gradient-4);}.cls-22{fill:url(#linear-gradient-5);}.cls-23{fill:#1c3fa2;}.cls-24{fill:#1c4fb5;}.cls-25{opacity:0.3;fill:url(#linear-gradient-6);}</style>
    <linearGradient
       id="linear-gradient"
       x1="301.76001"
       y1="396.32001"
       x2="301.76001"
       y2="250.22"
       gradientUnits="userSpaceOnUse"
       gradientTransform="translate(-77.650002,-86.835)">
      <stop
         offset="0"
         stop-color="#231f20"
         stop-opacity="0"
         id="stop4" />
      <stop
         offset="1"
         stop-color="#231f20"
         stop-opacity="0.2"
         id="stop6" />
    </linearGradient>
    <linearGradient
       id="linear-gradient-2"
       x1="300.60999"
       y1="261.35999"
       x2="300.60999"
       y2="197.85001"
       gradientUnits="userSpaceOnUse">
      <stop
         offset="0"
         stop-color="#6f6"
         stop-opacity="0"
         id="stop9" />
      <stop
         offset="0.3"
         stop-color="#66fd66"
         stop-opacity="0.03"
         id="stop11" />
      <stop
         offset="1"
         stop-color="#6c6"
         stop-opacity="0.5"
         id="stop13" />
    </linearGradient>
    <linearGradient
       id="linear-gradient-3"
       x1="356.26001"
       y1="293.64001"
       x2="356.26001"
       y2="230.13"
       xlink:href="#linear-gradient-2"
       gradientTransform="translate(-190.00346,-192.85)" />
    <linearGradient
       id="linear-gradient-4"
       x1="245.16"
       y1="293.67001"
       x2="245.16"
       y2="230.16"
       xlink:href="#linear-gradient-2"
       gradientTransform="translate(-190.00346,-192.85)" />
    <linearGradient
       id="linear-gradient-5"
       x1="300.60999"
       y1="325.70999"
       x2="300.60999"
       y2="262.20001"
       xlink:href="#linear-gradient-2"
       gradientTransform="translate(-190.00346,-192.85)" />
    <linearGradient
       id="linear-gradient-6"
       x1="298.41"
       y1="152.82001"
       x2="298.41"
       y2="106.96"
       gradientUnits="userSpaceOnUse"
       gradientTransform="translate(-77.650002,-86.835)">
      <stop
         offset="0"
         stop-color="#2568ef"
         stop-opacity="0"
         id="stop19" />
      <stop
         offset="0.3"
         stop-color="#2568ef"
         stop-opacity="0.03"
         id="stop21" />
      <stop
         offset="1"
         stop-color="#2568ef"
         stop-opacity="0.7"
         id="stop23" />
    </linearGradient>
    <linearGradient
       inkscape:collect="always"
       xlink:href="#linear-gradient-2"
       id="linearGradient351"
       gradientUnits="userSpaceOnUse"
       x1="300.60999"
       y1="261.35999"
       x2="300.60999"
       y2="197.85001"
       gradientTransform="translate(-190.00346,-192.85)" />
  </defs>
  <title
     id="title28">Schematic_Stencil_doc</title>
  <line
     class="cls-14"
     x1="55.606533"
     y1="31.759995"
     x2="110.60653"
     y2="63.509995"
     id="line156"
     style="opacity:0.4;isolation:isolate;fill:none;stroke:#ffffff;stroke-width:0.25px;stroke-linecap:round;stroke-miterlimit:10" />
  <path
     class="cls-15"
     d="m 110.60654,0 55,31.75 v 4.88 l -55,31.75 -55,-31.75 v -4.88 z m 0,25.17 c -11,0 -19.86,5.13 -19.86,11.47 0,6.34 8.89,11.51 19.86,11.51 10.97,0 19.86,-5.13 19.86,-11.47 0,-6.34 -8.89,-11.53 -19.86,-11.53 z"
     id="path158"
     inkscape:connector-curvature="0"
     style="isolation:isolate;fill:#66cc66" />
  <path
     class="cls-10"
     d="m 110.60654,0 55,31.75 -55,31.75 -55,-31.75 z m 0,20.29 c -11,0 -19.86,5.13 -19.86,11.47 0,6.34 8.89,11.47 19.86,11.47 10.97,0 19.86,-5.13 19.86,-11.47 0,-6.34 -8.89,-11.47 -19.86,-11.47 z"
     id="path160"
     inkscape:connector-curvature="0"
     style="isolation:isolate;fill:#66ff66" />
  <ellipse
     class="cls-16"
     cx="110.60653"
     cy="31.759995"
     rx="19.860001"
     ry="11.47"
     id="ellipse162"
     style="opacity:0.5;isolation:isolate;fill:none;stroke:#ffffff;stroke-width:0.25px;stroke-miterlimit:10" />
  <path
     class="cls-17"
     d="m 110.60654,5 55,31.75 -55,31.75 -55,-31.75 z m 0,15.29 c -11,0 -19.86,5.13 -19.86,11.47 0,6.34 8.89,11.47 19.86,11.47 10.97,0 19.86,-5.13 19.86,-11.47 0,-6.34 -8.89,-11.47 -19.86,-11.47 z"
     id="path164"
     style="isolation:isolate;fill:url(#linearGradient351)"
     inkscape:connector-curvature="0" />
  <path
     style="isolation:isolate;fill:#66cc66"
     inkscape:connector-curvature="0"
     id="path166"
     d="m 110.60654,43.22 c -9.52,0 -17.47,-3.87 -19.4,-9 a 6.91,6.91 0 0 0 -0.46,2.44 c 0,6.33 8.89,11.47 19.86,11.47 10.97,0 19.86,-5.13 19.86,-11.47 a 6.91,6.91 0 0 0 -0.47,-2.51 c -1.92,5.21 -9.87,9.07 -19.39,9.07 z"
     class="cls-15" />
  <line
     class="cls-14"
     x1="55.606533"
     y1="31.759995"
     x2="110.60653"
     y2="63.520004"
     id="line170"
     style="opacity:0.4;isolation:isolate;fill:none;stroke:#ffffff;stroke-width:0.25px;stroke-linecap:round;stroke-miterlimit:10" />
  <polygon
     class="cls-15"
     points="330.1,256.28 330.1,261.28 372.61,253.1 372.61,248.1 "
     id="polygon172"
     style="isolation:isolate;fill:#66cc66"
     transform="translate(-190.00346,-192.85)" />
  <path
     class="cls-15"
     d="m 166.25654,32.28 55,31.75 v 4.88 l -55,31.75 -55,-31.75 v -4.88 z m 16.3,23 -42.5,8.18 28.34,16.36 z"
     id="path174"
     inkscape:connector-curvature="0"
     style="isolation:isolate;fill:#66cc66" />
  <path
     class="cls-10"
     d="m 166.25654,32.28 55,31.75 -55,31.75 -55,-31.75 z m 16.3,23 -42.5,8.18 28.34,16.36 z"
     id="path176"
     inkscape:connector-curvature="0"
     style="isolation:isolate;fill:#66ff66" />
  <polygon
     class="cls-19"
     points="356.26,225.13 356.26,230.13 411.26,261.88 411.26,256.88 "
     id="polygon178"
     style="opacity:0.4;isolation:isolate;fill:#66cc66"
     transform="translate(-190.00346,-192.85)" />
  <polygon
     class="cls-16"
     points="358.39,272.64 372.56,248.11 330.06,256.29 "
     id="polygon180"
     style="opacity:0.5;isolation:isolate;fill:none;stroke:#ffffff;stroke-width:0.25px;stroke-miterlimit:10"
     transform="translate(-190.00346,-192.85)" />
  <path
     class="cls-20"
     d="m 166.25654,37.28 55,31.75 -55,31.75 -55,-31.75 z m 16.3,18 -42.5,8.18 28.34,16.36 z"
     id="path182"
     style="isolation:isolate;fill:url(#linear-gradient-3)"
     inkscape:connector-curvature="0" />
  <polygon
     class="cls-19"
     points="330.06,261.29 358.39,277.64 372.56,253.11 372.56,248.11 358.39,272.64 330.06,256.29 "
     id="polygon184"
     style="opacity:0.4;isolation:isolate;fill:#66cc66"
     transform="translate(-190.00346,-192.85)" />
  <line
     class="cls-14"
     x1="111.25655"
     y1="64.030014"
     x2="166.25656"
     y2="95.790024"
     id="line186"
     style="opacity:0.4;isolation:isolate;fill:none;stroke:#ffffff;stroke-width:0.25px;stroke-linecap:round;stroke-miterlimit:10" />
  <path
     class="cls-15"
     d="M 55.12654,32.32 0.12654004,64.07 v 4.88 L 55.12654,100.7 l 55,-31.75 v -4.88 z m 0.53,48.08 -23.29,-13.45 23.29,-13.45 23.34,13.46 z"
     id="path188"
     inkscape:connector-curvature="0"
     style="isolation:isolate;fill:#66cc66" />
  <path
     class="cls-10"
     d="M 55.12654,32.32 0.12654004,64.07 55.12654,95.82 l 55,-31.75 z m -22.69,29.64 23.29,-13.45 23.27,13.45 -23.29,13.45 z"
     id="path190"
     inkscape:connector-curvature="0"
     style="isolation:isolate;fill:#66ff66" />
  <path
     class="cls-21"
     d="M 55.15654,37.31 0.15654004,69.06 55.15654,100.81 l 55,-31.75 z m -22.69,24.64 23.29,-13.45 23.29,13.45 -23.29,13.45 z"
     id="path192"
     style="isolation:isolate;fill:url(#linear-gradient-4)"
     inkscape:connector-curvature="0" />
  <polygon
     class="cls-16"
     points="245.66,241.36 268.95,254.81 245.66,268.25 222.37,254.81 "
     id="polygon194"
     style="opacity:0.5;isolation:isolate;fill:none;stroke:#ffffff;stroke-width:0.25px;stroke-miterlimit:10"
     transform="translate(-190.00346,-192.85)" />
  <polygon
     class="cls-19"
     points="222.37,259.81 245.66,273.25 268.95,259.81 268.95,254.81 245.66,268.25 222.37,254.81 "
     id="polygon196"
     style="opacity:0.4;isolation:isolate;fill:#66cc66"
     transform="translate(-190.00346,-192.85)" />
  <line
     class="cls-14"
     x1="0.1265434"
     y1="64.070023"
     x2="55.126553"
     y2="95.830002"
     id="line198"
     style="opacity:0.4;isolation:isolate;fill:none;stroke:#ffffff;stroke-width:0.25px;stroke-linecap:round;stroke-miterlimit:10" />
  <polygon
     class="cls-19"
     points="245.13,225.17 245.13,230.17 300.13,261.93 300.13,256.93 "
     id="polygon200"
     style="opacity:0.4;isolation:isolate;fill:#66cc66"
     transform="translate(-190.00346,-192.85)" />
  <polygon
     class="cls-15"
     points="312.4,293.86 300.37,286.91 300.37,291.91 312.4,298.86 "
     id="polygon202"
     style="isolation:isolate;fill:#66cc66"
     transform="translate(-190.00346,-192.85)" />
  <path
     class="cls-15"
     d="m 110.60654,64.35 -55,31.75 v 4.88 l 55,31.75 55,-31.75 v -4.83 z m -22.76,34.64 23.29,-13.45 11.25,6.5 -12,7 12,7 -11.25,6.5 z"
     id="path204"
     inkscape:connector-curvature="0"
     style="isolation:isolate;fill:#66cc66" />
  <path
     class="cls-10"
     d="m 110.60654,64.35 -55,31.75 55,31.75 55,-31.75 z m -22.69,29.64 23.29,-13.45 11.22,6.48 -12.08,7 12.08,7 -11.22,6.48 z"
     id="path206"
     inkscape:connector-curvature="0"
     style="isolation:isolate;fill:#66ff66" />
  <line
     class="cls-14"
     x1="55.606533"
     y1="96.110001"
     x2="110.60653"
     y2="127.86"
     id="line208"
     style="opacity:0.4;isolation:isolate;fill:none;stroke:#ffffff;stroke-width:0.25px;stroke-linecap:round;stroke-miterlimit:10" />
  <polygon
     class="cls-16"
     points="301.14,273.39 277.85,286.84 301.14,300.29 312.39,293.79 300.35,286.84 312.39,279.89 "
     id="polygon210"
     style="opacity:0.5;isolation:isolate;fill:none;stroke:#ffffff;stroke-width:0.25px;stroke-miterlimit:10"
     transform="translate(-190.00346,-192.85)" />
  <path
     class="cls-22"
     d="m 110.60654,69.35 -55,31.75 55,31.75 55,-31.75 z m -22.69,24.64 23.29,-13.45 11.25,6.5 -12,7 12,7 -11.25,6.5 z"
     id="path212"
     style="isolation:isolate;fill:url(#linear-gradient-5)"
     inkscape:connector-curvature="0" />
  <polygon
     class="cls-19"
     points="277.85,286.84 277.85,291.84 301.14,305.29 312.41,298.78 312.41,293.78 301.14,300.29 "
     id="polygon214"
     style="opacity:0.4;isolation:isolate;fill:#66cc66"
     transform="translate(-190.00346,-192.85)" />
  <polygon
     class="cls-19"
     points="300.61,257.2 300.61,262.2 355.61,293.96 355.61,288.96 "
     id="polygon216"
     style="opacity:0.4;isolation:isolate;fill:#66cc66"
     transform="translate(-190.00346,-192.85)" />
</svg>
