<svg width="96" height="104" viewBox="0 0 96 104" fill="none" xmlns="http://www.w3.org/2000/svg">
<g clip-path="url(#clip0_2045_43549)" filter="url(#filter0_dd_2045_43549)">
<path d="M65.4438 44.0398C64.9612 44.18 64.5132 44.4197 64.1288 44.7435C63.7444 45.0673 63.432 45.468 63.2118 45.9198L62.9238 46.5118L62.9278 47.3398C62.9278 48.1118 62.9438 48.2078 63.1638 48.7518C63.4678 49.5238 63.7718 49.9998 64.3278 50.5438C65.2878 51.4958 66.3678 51.7438 67.8158 51.3638C68.2605 51.2279 68.673 51.0033 69.0284 50.7036C69.3839 50.4038 69.6749 50.0351 69.8838 49.6198C70.2173 49.0126 70.3303 48.3088 70.2038 47.6278C69.9478 45.8158 68.8838 44.4998 67.3078 44.0398C66.6936 43.9067 66.058 43.9067 65.4438 44.0398ZM28.6318 44.0598C27.4118 44.4438 26.4998 45.3398 26.0318 46.6158C25.7997 47.283 25.7178 47.9932 25.7918 48.6958C26.0198 49.9318 27.0318 51.0558 28.1838 51.3638C29.6318 51.7438 30.7118 51.4958 31.6718 50.5438C32.2318 49.9998 32.5318 49.5238 32.8358 48.7518C33.0558 48.2078 33.0718 48.1118 33.0718 47.3398L33.0758 46.5118L32.7878 45.9198C32.5655 45.4635 32.2492 45.0595 31.8597 44.7341C31.4702 44.4087 31.0163 44.1694 30.5278 44.0318C29.9027 43.889 29.2524 43.8986 28.6318 44.0598ZM45.3678 52.0598C44.8438 52.3438 44.4758 53.0598 44.5878 53.5918C44.7118 54.1638 45.2158 54.7438 45.9998 55.2198C46.4198 55.4718 46.4478 55.5078 46.4678 55.7638C46.4838 55.9158 46.4278 56.3478 46.3518 56.7358C46.2718 57.1118 46.2078 57.5118 46.2078 57.6238C46.2158 57.9198 46.4878 58.4038 46.7798 58.6358C47.0358 58.8438 47.0838 58.8518 47.7998 58.8718C48.4558 58.8918 48.5918 58.8758 48.8558 58.7518C49.5318 58.4238 49.7038 57.8158 49.4558 56.6518C49.2478 55.6798 49.2878 55.5318 49.8038 55.2318C50.3518 54.9118 50.9278 54.3558 51.0998 53.9758C51.2576 53.6278 51.2726 53.2318 51.1417 52.8729C51.0109 52.5139 50.7445 52.2206 50.3998 52.0558C50.172 51.9561 49.9241 51.9109 49.6758 51.9238C49.1718 51.9238 48.8478 52.0438 48.2558 52.4198L47.9158 52.6318L47.7038 52.5038C46.8278 51.9838 46.6678 51.9238 46.1398 51.9318C45.8759 51.9099 45.6106 51.9539 45.3678 52.0598ZM46.9278 43.2798C45.4358 43.4238 45.0278 43.4798 44.3118 43.6238C42.9988 43.9176 41.7228 44.3576 40.5078 44.9358C36.7478 46.7758 34.1518 49.8398 33.3598 53.3918C33.1998 54.0958 33.1798 54.3278 33.1798 55.5118C33.1798 56.6878 33.1998 56.9398 33.3518 57.6078C34.4078 62.2478 38.6798 65.6758 44.2078 66.2998C45.4078 66.4318 50.5918 66.4318 51.7918 66.2998C56.2318 65.7998 60.0478 63.3918 61.7638 60.0158C62.2198 59.1118 62.4398 58.5278 62.6438 57.6078C62.7998 56.9398 62.8198 56.6878 62.8198 55.5158C62.8198 54.3278 62.7998 54.0958 62.6398 53.3918C61.4878 48.2318 56.4838 44.1758 50.3518 43.4038C49.2154 43.2927 48.0693 43.2513 46.9278 43.2798ZM49.5078 47.0278C51.5623 47.2527 53.5352 47.957 55.2678 49.0838C56.1598 49.6758 57.4158 50.9158 57.9518 51.7318C58.6158 52.7358 58.9918 53.7638 59.1638 55.0118C59.2438 55.5838 59.2038 56.0158 58.9918 56.9398C58.6718 58.3198 57.6638 59.7598 56.3038 60.7678C55.4489 61.3485 54.5226 61.8164 53.5478 62.1598C52.0198 62.6478 51.0198 62.7358 47.4478 62.7118C45.1198 62.6878 44.7038 62.6718 44.0358 62.5438C41.7531 62.1171 39.9531 61.2104 38.6358 59.8238C37.5798 58.7038 37.0958 57.6838 36.8358 56.0398C36.7158 55.2718 36.9358 54.0038 37.3838 52.9358C37.9278 51.6318 39.3358 50.0158 40.7278 49.0838C42.3398 48.0078 44.4638 47.2438 46.4158 47.0358C47.1638 46.9558 48.7598 46.9558 49.5078 47.0278ZM27.4958 3.02777C26.5062 3.21157 25.5717 3.6193 24.7638 4.21977C22.4678 5.95977 20.6918 9.66377 19.9398 14.2758C19.6598 16.0198 19.4638 18.4358 19.4638 20.2878C19.4638 22.4638 19.7198 25.2478 20.0838 27.1718C20.1638 27.5998 20.2078 27.9798 20.1758 28.0038L19.4278 28.6118C17.9885 29.7988 16.7121 31.1707 15.6318 32.6918C13.6711 35.4773 12.3839 38.6801 11.8718 42.0478C11.6547 43.8491 11.6239 45.6681 11.7798 47.4758C12.1438 50.5958 13.0798 53.2278 14.6878 55.6358L15.2078 56.4158L15.0598 56.6718C13.9838 58.4798 13.0678 61.0918 12.6398 63.5998C12.3038 65.5838 12.2598 66.1158 12.2598 68.7758C12.2598 71.4558 12.2958 71.9878 12.6118 73.8398C12.9918 76.0598 13.7638 78.4118 14.6238 79.9758C14.9078 80.4878 15.5958 81.5478 15.6798 81.6038C15.7078 81.6158 15.6238 81.8718 15.4958 82.1678C14.4376 84.5574 13.7005 87.0766 13.3038 89.6598C13.0778 90.9684 12.9826 92.2963 13.0198 93.6238C13.0198 95.8638 13.1438 96.9518 13.6118 98.7398L13.6798 98.9998H19.5918L19.3918 98.6358C18.2038 96.4278 18.0918 92.3358 19.1198 88.2478C19.5878 86.3598 20.1198 84.9718 21.1118 83.0638L21.7038 81.9038V81.1958C21.7038 80.5358 21.6918 80.4598 21.4758 80.0238C21.2782 79.6472 21.0155 79.3087 20.6998 79.0238C20.0484 78.4083 19.525 77.6702 19.1598 76.8518C17.4638 73.1718 17.1358 67.7078 18.3278 63.0478C18.8238 61.1038 19.6438 59.3758 20.5038 58.4318C21.0545 57.8591 21.3725 57.102 21.3958 56.3078C21.3958 55.5278 21.1158 54.8878 20.4998 54.2198C18.7179 52.3103 17.5756 49.8928 17.2318 47.3038C16.6718 43.4638 17.6878 39.2838 19.9918 35.9678C22.2438 32.7118 25.4038 30.6238 28.9398 30.0678C29.7358 29.9358 31.2198 29.9558 32.0438 30.1078C32.9478 30.2678 33.5118 30.2198 34.0918 29.9438C34.8078 29.6038 35.1638 29.1838 35.5878 28.2198C35.9598 27.3598 36.2478 26.8878 37.0278 25.9158C37.9638 24.7558 38.8678 23.9598 40.3158 22.9998C41.9678 21.9198 43.8518 21.1318 45.7238 20.7558C46.4038 20.6158 46.7238 20.5958 47.9998 20.5958C49.2758 20.5958 49.5918 20.6158 50.2758 20.7558C53.1402 21.372 55.7852 22.7497 57.9318 24.7438C58.3998 25.1798 59.5238 26.5718 59.8838 27.1518C60.0198 27.3798 60.2638 27.8598 60.4118 28.2198C60.8318 29.1838 61.1918 29.6038 61.9078 29.9398C62.4678 30.2118 63.0518 30.2678 63.9198 30.1198C65.2918 29.8878 66.3478 29.9078 67.6918 30.1838C72.2678 31.1038 76.2518 34.8758 78.0158 39.9318C79.5558 44.3638 79.1198 48.9998 76.8318 52.5438C76.4438 53.1438 76.0598 53.6238 75.4998 54.2198C74.2958 55.5078 74.2958 57.1078 75.4958 58.4318C77.4678 60.5878 78.6998 65.8958 78.3278 70.5758C78.0798 73.6638 77.2878 76.4278 76.1958 77.9918C75.9271 78.3607 75.6274 78.706 75.2998 79.0238C74.9841 79.3087 74.7214 79.6472 74.5238 80.0238C74.3078 80.4598 74.2958 80.5358 74.2958 81.1958V81.9078L74.8878 83.0678C75.8798 84.9718 76.4078 86.3598 76.8798 88.2478C77.8918 92.2798 77.8038 96.2878 76.6438 98.5718C76.5782 98.6992 76.5194 98.8301 76.4678 98.9638C76.4678 98.9878 77.7838 98.9998 79.3958 98.9998H82.3158L82.3958 98.7038L82.5398 98.1678C82.6158 97.8638 82.7678 96.9678 82.8918 96.1038C83.0092 94.4285 83.0092 92.7471 82.8918 91.0718C82.4518 87.5718 81.7118 84.7918 80.5038 82.1678C80.3758 81.8718 80.2918 81.6158 80.3198 81.6038C80.4772 81.4109 80.6215 81.2078 80.7518 80.9958C82.2558 78.7198 83.1798 75.8598 83.6478 72.0838C83.7718 71.0438 83.7718 66.5718 83.6478 65.5718C83.3158 62.9918 82.9198 61.2438 82.2558 59.4718C81.8778 58.5111 81.4382 57.5758 80.9398 56.6718L80.7878 56.4158L81.3118 55.6398C82.9198 53.2238 83.8558 50.5918 84.2198 47.4798C84.3747 45.6706 84.3425 43.8503 84.1238 42.0478C83.6129 38.6804 82.3271 35.4777 80.3678 32.6918C79.2863 31.1704 78.0086 29.7985 76.5678 28.6118L75.8238 28.0038C75.8126 27.7234 75.8436 27.4429 75.9158 27.1718C76.7478 22.8238 76.7198 17.3998 75.8478 13.1598C75.0878 9.46377 73.7078 6.52777 71.9278 4.83177C70.5118 3.47977 69.0638 2.90377 67.3278 3.01177C63.3438 3.24777 60.1278 7.83177 58.8638 15.0518C58.6839 16.0123 58.5544 16.9817 58.4758 17.9558C58.4758 18.0998 58.4478 18.2198 58.4158 18.2198C58.2087 18.1327 58.0094 18.0283 57.8198 17.9078C54.8533 16.1203 51.4631 15.1577 47.9998 15.1198C44.6718 15.1198 41.2518 16.0918 38.1758 17.9118C37.9875 18.0321 37.7895 18.1365 37.5838 18.2238C37.5518 18.2238 37.5238 18.1038 37.5238 17.9598C37.4451 16.987 37.3156 16.019 37.1358 15.0598C35.9878 8.56777 33.3478 4.27577 29.8398 3.19177C29.0721 3.02242 28.2796 2.96716 27.4958 3.02777ZM28.6678 8.63577C29.6598 9.42377 30.7598 11.6718 31.3958 14.1878C31.5158 14.6398 31.6358 15.1638 31.6718 15.3558C31.6998 15.5438 31.7758 15.9638 31.8358 16.2878C32.1038 17.7478 32.2278 19.3278 32.2438 21.2478L32.2518 23.1478L31.7718 23.8478L31.2998 24.5598H30.1878C28.8918 24.5598 27.6038 24.7238 26.3718 25.0558L25.4198 25.2958C25.2878 25.3238 25.2678 25.2838 25.1918 24.7198C24.7827 21.6344 24.8042 18.5072 25.2558 15.4278C25.7518 12.2758 26.9078 9.42377 28.0398 8.58377C28.3078 8.38377 28.3558 8.38777 28.6678 8.63577ZM67.9678 8.58777C68.6478 9.09177 69.3998 10.4278 69.9598 12.1398C71.0798 15.5558 71.3998 20.2518 70.8078 24.7198C70.7318 25.2798 70.7118 25.3238 70.5798 25.2958L69.6278 25.0558C68.3828 24.7251 67.1 24.5583 65.8118 24.5598H64.6998L64.2238 23.8478L63.7478 23.1478L63.7558 21.2518C63.7718 18.5758 64.0198 16.4918 64.6118 14.1638C65.2398 11.6718 66.3478 9.42377 67.3318 8.63577C67.6438 8.38777 67.6918 8.38377 67.9678 8.58777Z" fill="#404040"/>
</g>
<defs>
<filter id="filter0_dd_2045_43549" x="-4" y="0" width="104" height="104" filterUnits="userSpaceOnUse" color-interpolation-filters="sRGB">
<feFlood flood-opacity="0" result="BackgroundImageFix"/>
<feColorMatrix in="SourceAlpha" type="matrix" values="0 0 0 0 0 0 0 0 0 0 0 0 0 0 0 0 0 0 127 0" result="hardAlpha"/>
<feMorphology radius="1" operator="dilate" in="SourceAlpha" result="effect1_dropShadow_2045_43549"/>
<feOffset dy="1"/>
<feGaussianBlur stdDeviation="1.5"/>
<feColorMatrix type="matrix" values="0 0 0 0 0 0 0 0 0 0 0 0 0 0 0 0 0 0 0.15 0"/>
<feBlend mode="normal" in2="BackgroundImageFix" result="effect1_dropShadow_2045_43549"/>
<feColorMatrix in="SourceAlpha" type="matrix" values="0 0 0 0 0 0 0 0 0 0 0 0 0 0 0 0 0 0 127 0" result="hardAlpha"/>
<feOffset dy="1"/>
<feGaussianBlur stdDeviation="1"/>
<feColorMatrix type="matrix" values="0 0 0 0 0 0 0 0 0 0 0 0 0 0 0 0 0 0 0.3 0"/>
<feBlend mode="normal" in2="effect1_dropShadow_2045_43549" result="effect2_dropShadow_2045_43549"/>
<feBlend mode="normal" in="SourceGraphic" in2="effect2_dropShadow_2045_43549" result="shape"/>
</filter>
<clipPath id="clip0_2045_43549">
<rect width="96" height="96" fill="white" transform="translate(0 3)"/>
</clipPath>
</defs>
</svg>
