<svg width="96" height="96" viewBox="0 0 96 96" fill="none" xmlns="http://www.w3.org/2000/svg">
<g clip-path="url(#clip0_2045_43552)">
<path d="M0 0V96H96V0H0ZM48 73.6C33.76 73.6 22.2401 62.08 22.2401 47.8399C22.2401 33.6 33.76 22.08 48 22.08C62.24 22.08 73.76 33.6 73.76 47.8399C73.76 62.08 62.24 73.6 48 73.6Z" fill="#66FF66"/>
<g style="mix-blend-mode:darken">
<path d="M69.5755 73.6738C83.8023 73.6738 95.3355 62.1407 95.3355 47.9138C95.3355 33.6869 83.8023 22.1539 69.5755 22.1539C55.3486 22.1539 43.8154 33.6869 43.8154 47.9138C43.8154 62.1407 55.3486 73.6738 69.5755 73.6738Z" fill="#2568EF"/>
</g>
</g>
<defs>
<clipPath id="clip0_2045_43552">
<rect width="96" height="96" fill="white"/>
</clipPath>
</defs>
</svg>
