<svg width="208" height="48" viewBox="0 0 208 48" fill="none" xmlns="http://www.w3.org/2000/svg">
<g clip-path="url(#clip0_2045_43581)">
<path d="M0 0V48H48V0H0ZM24 36.8C16.88 36.8 11.12 31.04 11.12 23.92C11.12 16.8 16.88 11.04 24 11.04C31.12 11.04 36.88 16.8 36.88 23.92C36.88 31.04 31.12 36.8 24 36.8Z" fill="#66FF66"/>
<g style="mix-blend-mode:darken">
<path d="M34.7878 36.8369C41.9011 36.8369 47.6677 31.0704 47.6677 23.9569C47.6677 16.8435 41.9011 11.0769 34.7878 11.0769C27.6743 11.0769 21.9077 16.8435 21.9077 23.9569C21.9077 31.0704 27.6743 36.8369 34.7878 36.8369Z" fill="#2568EF"/>
</g>
</g>
<path d="M70.092 22.708C72.72 24.004 75.06 26.092 75.06 29.728C75.06 34.552 70.308 37.72 65.196 37.72C59.976 37.72 56.448 35.056 54.72 32.104L59.076 29.224C60.408 31.564 62.568 32.824 65.088 32.932C67.284 33.04 68.904 32.212 69.408 30.664C69.876 29.224 69.156 27.784 67.464 26.992C65.988 26.308 61.956 24.4 61.128 23.968C58.068 22.456 55.908 20.512 55.908 16.732C55.872 11.944 60.084 8.704 65.232 8.704C69.588 8.704 72.792 10.828 74.628 13.816L70.344 16.408C69.444 14.824 67.716 13.312 65.448 13.312C62.784 13.312 61.38 14.572 61.128 16.048C60.876 17.704 61.992 18.82 63.72 19.612C64.872 20.116 68.76 22.024 70.092 22.708ZM90.5375 32.572L92.1215 35.956C90.7535 36.856 88.7735 37.54 87.0095 37.54C83.2655 37.54 81.2495 34.66 81.2495 30.988V21.268H76.9655V17.344H81.2855V11.26H86.1815V17.344H91.8335V21.268H86.1815V30.736C86.1815 32.464 86.9735 33.04 88.4855 33.076C89.2055 33.112 90.0695 32.788 90.5375 32.572ZM112.993 26.56C112.993 27.856 112.057 29.08 110.257 29.08H98.3048C98.9888 31.348 101.077 32.968 103.237 32.968C105.289 32.968 106.801 32.032 107.557 31.168C107.737 30.916 107.989 30.664 107.989 30.664L111.517 33.724C110.041 35.668 107.089 37.54 103.237 37.54C97.8368 37.54 93.3008 32.896 93.3008 27.172C93.3008 21.448 97.8368 16.804 103.237 16.804C106.333 16.804 109.429 18.352 111.229 20.98C112.417 22.708 112.993 24.544 112.993 26.56ZM103.237 21.52C100.897 21.52 98.9168 23.176 98.2688 25.372H107.953C107.485 23.608 106.009 21.52 103.237 21.52ZM127.354 16.84C132.466 16.84 135.706 20.872 135.706 26.02V37H130.846V26.128C130.846 23.608 128.83 21.628 126.382 21.628C123.898 21.628 121.882 23.572 121.882 26.416V37H117.022V17.344H121.45V19.54C122.962 17.668 125.158 16.84 127.354 16.84ZM154.148 30.808L158.072 33.652C156.2 36.1 153.14 37.648 149.9 37.648C144.284 37.648 139.532 32.968 139.532 27.172C139.532 21.412 144.284 16.696 149.9 16.696C153.104 16.696 156.128 18.244 158 20.62L154.04 23.428C153.068 22.312 151.484 21.592 149.9 21.592C146.948 21.592 144.572 24.076 144.572 27.172C144.572 30.268 146.948 32.788 149.9 32.788C151.556 32.788 153.176 32.032 154.148 30.808ZM163.733 15.148C162.005 15.148 160.601 13.816 160.601 12.16C160.601 10.504 162.005 9.136 163.733 9.136C165.425 9.136 166.829 10.504 166.829 12.16C166.829 13.816 165.425 15.148 163.733 15.148ZM161.249 37V17.344H166.109V37H161.249ZM176.498 32.788C176.858 33.04 177.362 33.184 178.262 33.004L179.594 36.352C178.334 37.144 176.75 37.504 175.886 37.504C172.826 37.504 171.062 35.236 171.062 31.96V9.172H175.958V31.672C175.958 32.248 176.21 32.572 176.498 32.788ZM196.18 17.308H200.608V37H196.18V34.912C194.812 36.532 192.58 37.648 190.204 37.648C184.588 37.648 180.34 32.968 180.34 27.208C180.34 21.448 184.588 16.804 190.204 16.804C192.58 16.804 194.812 17.884 196.18 19.468V17.308ZM190.708 32.824C192.94 32.824 194.884 31.42 195.748 29.404V25.012C194.884 23.032 192.94 21.592 190.708 21.592C189.556 21.592 188.476 21.952 187.576 22.6C186.172 23.608 185.2 25.3 185.2 27.208C185.2 29.116 186.172 30.844 187.576 31.816C188.476 32.464 189.556 32.824 190.708 32.824Z" fill="#2568EF"/>
<defs>
<clipPath id="clip0_2045_43581">
<rect width="48" height="48" fill="white"/>
</clipPath>
</defs>
</svg>
