<svg width="96" height="96" viewBox="0 0 96 96" fill="none" xmlns="http://www.w3.org/2000/svg">
<mask id="mask0_2045_43454" style="mask-type:alpha" maskUnits="userSpaceOnUse" x="0" y="0" width="96" height="96">
<path fill-rule="evenodd" clip-rule="evenodd" d="M68.0754 95.3444C69.5874 95.9335 71.3115 95.8957 72.8376 95.1613L92.6024 85.6509C94.6792 84.6516 96 82.5496 96 80.2437V15.7568C96 13.4508 94.6793 11.3489 92.6025 10.3496L72.8376 0.838805C70.8347 -0.124925 68.4908 0.111129 66.733 1.38907C66.4819 1.57162 66.2427 1.77545 66.0182 2.00007L28.1809 36.5198L11.6997 24.0092C10.1654 22.8446 8.01949 22.9401 6.59456 24.2363L1.30851 29.0447C-0.43445 30.6301 -0.436447 33.3722 1.30419 34.9603L15.5972 48.0001L1.30419 61.0399C-0.436447 62.6279 -0.43445 65.37 1.30851 66.9555L6.59456 71.7639C8.01949 73.0601 10.1654 73.1555 11.6997 71.9909L28.1809 59.4804L66.0182 94C66.6168 94.599 67.3196 95.05 68.0754 95.3444ZM72.0146 26.2069L43.3047 48.0001L72.0146 69.7932V26.2069Z" fill="white"/>
</mask>
<g mask="url(#mask0_2045_43454)">
<path d="M92.6027 10.3645L72.8224 0.840706C70.5328 -0.261676 67.7966 0.203332 65.9998 2.00018L1.24639 61.0401C-0.495309 62.628 -0.493307 65.3701 1.25071 66.9556L6.53997 71.764C7.96577 73.0602 10.1131 73.1556 11.6482 71.9911L89.6262 12.8353C92.2423 10.8507 95.9998 12.7165 95.9998 16.0002V15.7706C95.9998 13.4656 94.6794 11.3645 92.6027 10.3645Z" fill="#0065A9"/>
<g filter="url(#filter0_d_2045_43454)">
<path d="M92.6027 85.6355L72.8224 95.1594C70.5328 96.262 67.7966 95.7968 65.9998 93.9999L1.24639 34.9601C-0.495309 33.3721 -0.493307 30.63 1.25071 29.0445L6.53997 24.2361C7.96577 22.9399 10.1131 22.8445 11.6482 24.009L89.6262 83.1648C92.2423 85.1494 95.9998 83.2836 95.9998 80V80.2296C95.9998 82.5345 94.6794 84.6356 92.6027 85.6355Z" fill="#007ACC"/>
</g>
<g filter="url(#filter1_d_2045_43454)">
<path d="M72.8235 95.1614C70.5332 96.2632 67.797 95.7971 66 94.0001C68.2141 96.2142 72 94.646 72 91.5148V4.48536C72 1.35409 68.2141 -0.214064 66 2.00008C67.797 0.203064 70.5332 -0.262602 72.8235 0.838805L92.6004 10.3496C94.6785 11.3489 96 13.4509 96 15.7568V80.2437C96 82.5497 94.6785 84.6516 92.6003 85.6509L72.8235 95.1614Z" fill="#1F9CF0"/>
</g>
<g style="mix-blend-mode:overlay" opacity="0.25">
<path fill-rule="evenodd" clip-rule="evenodd" d="M68.0168 95.3445C69.5288 95.9334 71.253 95.8957 72.779 95.1614L92.5438 85.651C94.6206 84.6516 95.9414 82.5497 95.9414 80.2437V15.7568C95.9414 13.4508 94.6207 11.3489 92.5439 10.3495L72.779 0.838806C70.7762 -0.124924 68.4322 0.11113 66.6743 1.38906C66.4233 1.57163 66.1841 1.77545 65.9596 2.00007L28.1223 36.5198L11.6411 24.0093C10.1069 22.8446 7.96089 22.9401 6.53596 24.2362L1.24992 29.0447C-0.493044 30.6302 -0.495041 33.3722 1.2456 34.9603L15.5386 48.0001L1.2456 61.0399C-0.495041 62.628 -0.493044 65.37 1.24992 66.9555L6.53596 71.7639C7.96089 73.0601 10.1069 73.1555 11.6411 71.9909L28.1223 59.4803L65.9596 94.0001C66.5582 94.5989 67.261 95.05 68.0168 95.3445ZM71.956 26.207L43.2461 48.0001L71.956 69.7932V26.207Z" fill="url(#paint0_linear_2045_43454)"/>
</g>
</g>
<defs>
<filter id="filter0_d_2045_43454" x="-8.39193" y="14.8625" width="112.725" height="89.2223" filterUnits="userSpaceOnUse" color-interpolation-filters="sRGB">
<feFlood flood-opacity="0" result="BackgroundImageFix"/>
<feColorMatrix in="SourceAlpha" type="matrix" values="0 0 0 0 0 0 0 0 0 0 0 0 0 0 0 0 0 0 127 0" result="hardAlpha"/>
<feOffset/>
<feGaussianBlur stdDeviation="4.16667"/>
<feColorMatrix type="matrix" values="0 0 0 0 0 0 0 0 0 0 0 0 0 0 0 0 0 0 0.25 0"/>
<feBlend mode="overlay" in2="BackgroundImageFix" result="effect1_dropShadow_2045_43454"/>
<feBlend mode="normal" in="SourceGraphic" in2="effect1_dropShadow_2045_43454" result="shape"/>
</filter>
<filter id="filter1_d_2045_43454" x="57.6667" y="-8.08578" width="46.6667" height="112.172" filterUnits="userSpaceOnUse" color-interpolation-filters="sRGB">
<feFlood flood-opacity="0" result="BackgroundImageFix"/>
<feColorMatrix in="SourceAlpha" type="matrix" values="0 0 0 0 0 0 0 0 0 0 0 0 0 0 0 0 0 0 127 0" result="hardAlpha"/>
<feOffset/>
<feGaussianBlur stdDeviation="4.16667"/>
<feColorMatrix type="matrix" values="0 0 0 0 0 0 0 0 0 0 0 0 0 0 0 0 0 0 0.25 0"/>
<feBlend mode="overlay" in2="BackgroundImageFix" result="effect1_dropShadow_2045_43454"/>
<feBlend mode="normal" in="SourceGraphic" in2="effect1_dropShadow_2045_43454" result="shape"/>
</filter>
<linearGradient id="paint0_linear_2045_43454" x1="47.9414" y1="0.247558" x2="47.9414" y2="95.7527" gradientUnits="userSpaceOnUse">
<stop stop-color="white"/>
<stop offset="1" stop-color="white" stop-opacity="0"/>
</linearGradient>
</defs>
</svg>
