<svg width="24" height="24" viewBox="0 0 24 24" fill="none" xmlns="http://www.w3.org/2000/svg">
<path d="M21.95 4.903C21.9349 4.84601 21.9149 4.79046 21.89 4.737C21.8194 4.57415 21.7135 4.42899 21.58 4.312C21.4935 4.23249 21.3958 4.16611 21.29 4.115L17.172 2.121C16.9383 2.01122 16.6767 1.97529 16.422 2.018C16.1678 2.06212 15.9332 2.18325 15.75 2.365L9.106 9.75L5.228 6.553L4.891 6.272C4.7746 6.17006 4.63114 6.10406 4.478 6.082C4.456 6.078 4.434 6.07567 4.412 6.075C4.39267 6.07233 4.373 6.07133 4.353 6.072C4.32233 6.072 4.29233 6.073 4.263 6.075C4.2362 6.07578 4.20963 6.08016 4.184 6.088C4.13039 6.09722 4.07804 6.11266 4.028 6.134L2.513 6.763C2.36267 6.82796 2.23373 6.93402 2.141 7.069C2.05013 7.20641 2.00114 7.36726 2 7.532V16.468C2 16.631 2.05 16.793 2.14 16.931C2.231 17.065 2.362 17.171 2.513 17.237L4.028 17.875C4.17016 17.9341 4.3257 17.9534 4.478 17.931C4.63036 17.9063 4.77314 17.8407 4.891 17.741L5.228 17.447L9.106 14.249L15.75 21.635C15.7727 21.657 15.7967 21.679 15.822 21.701C15.8247 21.7043 15.828 21.7063 15.832 21.707C16.0154 21.861 16.2392 21.9591 16.4768 21.9896C16.7143 22.0201 16.9556 21.9817 17.172 21.879L21.291 19.885C21.3445 19.8602 21.3957 19.8308 21.444 19.797C21.541 19.732 21.631 19.65 21.706 19.566C21.744 19.5193 21.7783 19.4713 21.809 19.422C21.934 19.222 22 18.991 22 18.753V5.247C22 5.13033 21.9833 5.01567 21.95 4.903ZM4.5 14.874V9.126L7.084 12.002L4.5 14.874ZM11.834 12.001L17 7.742V16.26L11.834 12.001Z" fill="#FAFAFA"/>
</svg>
