<?xml version="1.0" encoding="utf-8"?>
<!-- Generator: Adobe Illustrator 22.1.0, SVG Export Plug-In . SVG Version: 6.00 Build 0)  -->
<svg version="1.1" id="Layer_1" xmlns="http://www.w3.org/2000/svg" xmlns:xlink="http://www.w3.org/1999/xlink" x="0px" y="0px"
	 width="60.2px" height="60px" viewBox="0 0 60.2 60" style="enable-background:new 0 0 60.2 60;" xml:space="preserve">
<style type="text/css">
	.st0{fill:#66FF66;}
	.st1{fill:#FFFFFF;}
	.st2{fill:#B7FFB4;}
</style>
<path class="st0" d="M0,0v60h60V0H0z M30,46.1c-8.9,0-16.1-7.2-16.1-16.1S21.1,13.9,30,13.9S46.1,21.1,46.1,30S38.9,46.1,30,46.1z"
	/>
<circle class="st1" cx="44" cy="30" r="16.1"/>
<path class="st2" d="M44,13.9c-2.5,0-4.9,0.6-6.9,1.6c5.4,2.6,9.1,8.1,9.1,14.5s-3.7,11.9-9.1,14.5c2.1,1,4.5,1.6,6.9,1.6
	c8.9,0,16.1-7.2,16.1-16.1S52.8,13.9,44,13.9z"/>
</svg>
