<svg width="591" height="489" viewBox="0 0 591 489" fill="none" xmlns="http://www.w3.org/2000/svg">
<path d="M415.5 489C512.426 489 591 410.202 591 313C591 215.798 512.426 137 415.5 137C318.574 137 240 215.798 240 313C240 410.202 318.574 489 415.5 489Z" fill="white"/>
<path d="M175.5 351C272.426 351 351 272.426 351 175.5C351 78.574 272.426 0 175.5 0C78.574 0 0 78.574 0 175.5C0 272.426 78.574 351 175.5 351Z" fill="white"/>
<path d="M176.733 208.945L272.467 264.326L176.733 319.707L81 264.326L176.733 208.945Z" fill="white"/>
<path d="M169.401 257.326L224.497 289.168L242.863 278.6L187.766 246.689L169.401 257.326Z" fill="#2568EF"/>
<path d="M123.008 283.747L178.104 315.658L196.47 305.021L141.373 273.178L123.008 283.747Z" fill="#2568EF"/>
<path d="M213.19 255.542L247.797 275.58L266.162 265.012L231.556 244.973L213.19 255.542Z" fill="#2568EF"/>
<path d="M113.414 251.287L201.746 302.413L220.112 291.845L131.779 240.718L113.414 251.287Z" fill="#2568EF"/>
<path d="M179.406 212.925L87.2363 266.247" stroke="#E6E7E8" stroke-width="1.2702" stroke-miterlimit="10"/>
<path d="M195.579 222.739L103.409 276.061" stroke="#E6E7E8" stroke-width="1.2702" stroke-miterlimit="10"/>
<path d="M211.82 232.552L119.581 285.874" stroke="#E6E7E8" stroke-width="1.2702" stroke-miterlimit="10"/>
<path d="M227.992 242.365L135.822 295.688" stroke="#E6E7E8" stroke-width="1.2702" stroke-miterlimit="10"/>
<path d="M244.165 252.179L151.995 305.501" stroke="#E6E7E8" stroke-width="1.2702" stroke-miterlimit="10"/>
<path d="M260.406 261.992L168.167 315.246" stroke="#E6E7E8" stroke-width="1.2702" stroke-miterlimit="10"/>
<path d="M177.967 120.924L273.7 176.305V184.815L177.967 240.196L82.2334 184.815V176.305L177.967 120.924ZM177.967 164.845C158.848 164.845 143.429 173.766 143.429 184.815C143.429 195.864 158.916 204.785 177.967 204.785C197.018 204.785 212.505 195.864 212.505 184.815C212.505 173.766 197.018 164.845 177.967 164.845Z" fill="#66CC66"/>
<path d="M177.967 120.924L273.7 176.305L177.967 231.686L82.2334 176.305L177.967 120.924ZM177.967 156.335C158.848 156.335 143.429 165.257 143.429 176.305C143.429 187.354 158.916 196.275 177.967 196.275C197.086 196.275 212.505 187.354 212.505 176.305C212.505 165.257 197.018 156.335 177.967 156.335V156.335Z" fill="#66FF66"/>
<path opacity="0.5" d="M177.967 196.275C197.042 196.275 212.505 187.334 212.505 176.305C212.505 165.276 197.042 156.335 177.967 156.335C158.892 156.335 143.429 165.276 143.429 176.305C143.429 187.334 158.892 196.275 177.967 196.275Z" stroke="white" stroke-width="0.6351" stroke-miterlimit="10"/>
<path d="M177.967 129.64L273.7 185.021L177.967 240.402L82.2334 185.021L177.967 129.64ZM177.967 156.335C158.848 156.335 143.429 165.256 143.429 176.305C143.429 187.354 158.916 196.275 177.967 196.275C197.086 196.275 212.505 187.354 212.505 176.305C212.505 165.256 197.018 156.335 177.967 156.335Z" fill="url(#paint0_linear)"/>
<path opacity="0.4" d="M177.967 120.924V129.64L273.7 185.021V176.305L177.967 120.924Z" fill="#66CC66"/>
<path opacity="0.4" d="M82.2334 176.305L177.967 231.686" stroke="white" stroke-width="0.6351" stroke-miterlimit="10" stroke-linecap="round"/>
<path opacity="0.4" d="M177.967 196.275C161.383 196.275 147.541 189.55 144.183 180.56C143.634 181.933 143.36 183.374 143.36 184.815C143.36 195.864 158.848 204.785 177.898 204.785C196.949 204.785 212.436 195.864 212.436 184.815C212.436 183.374 212.162 181.933 211.614 180.56C208.325 189.55 194.482 196.275 177.967 196.275V196.275Z" fill="#66CC66"/>
<path d="M158.984 10.3097C159.807 9.82935 160.492 9.89797 160.903 10.5842C161.314 11.2705 161.589 12.4371 161.589 14.0155C161.589 15.5939 161.383 17.0351 160.903 18.2017C160.424 19.3683 159.807 20.2605 158.984 20.7408C158.162 21.2212 157.545 21.1526 157.066 20.4663C156.654 19.7801 156.38 18.6134 156.38 17.0351C156.38 15.4567 156.586 14.0841 157.066 12.8489C157.545 11.6136 158.162 10.7901 158.984 10.3097V10.3097ZM157.545 18.4076L160.081 11.6136C159.944 11.3391 159.738 11.1332 159.533 11.1332C159.327 11.1332 159.121 11.1332 158.916 11.2705C158.368 11.545 157.957 12.2312 157.682 13.1234C157.408 14.0841 157.271 15.1135 157.271 16.3488V17.2409C157.408 17.5841 157.477 17.9272 157.545 18.4076V18.4076ZM160.424 12.643L157.888 19.437C158.025 19.6428 158.162 19.7801 158.368 19.8487C158.573 19.9173 158.71 19.8487 158.984 19.7115C159.601 19.3683 160.012 18.6821 160.286 17.6527C160.561 16.6233 160.698 15.5253 160.698 14.4273C160.629 13.8096 160.561 13.192 160.424 12.643Z" fill="#2568EF"/>
<path d="M164.604 86.2785V78.7296C164.33 79.1414 164.056 79.5532 163.85 79.8963C163.576 80.2394 163.233 80.6512 162.822 81.0629V79.9649C163.508 79.1414 164.124 78.3179 164.604 77.4258L165.495 76.9454V85.7981L167.277 84.7687V85.7295L162.822 88.3373V87.3765L164.604 86.2785Z" fill="#2568EF"/>
<path d="M170.429 44.3481V36.7993C170.155 37.211 169.88 37.6228 169.675 37.9659C169.401 38.3091 169.058 38.7208 168.647 39.1326V38.0345C169.332 37.211 169.949 36.3875 170.429 35.4954L171.32 35.015V43.8677L173.101 42.8383V43.7991L168.647 46.4069V45.4461L170.429 44.3481Z" fill="#2568EF"/>
<path d="M176.253 63.7692V56.2204C175.979 56.6321 175.705 57.0439 175.5 57.387C175.225 57.7301 174.883 58.1419 174.472 58.5536V57.4556C175.157 56.6321 175.774 55.8086 176.253 54.9165L177.144 54.4361V63.2888L178.926 62.2594V63.2202L174.472 65.828V64.7986L176.253 63.7692Z" fill="#2568EF"/>
<path d="M182.284 66.926C183.106 66.4456 183.791 66.5142 184.203 67.2005C184.614 67.8868 184.888 69.0534 184.888 70.6318C184.888 72.2102 184.682 73.6513 184.203 74.818C183.791 75.9846 183.106 76.8767 182.284 77.3571C181.461 77.8375 180.845 77.7689 180.365 77.0826C179.954 76.3964 179.68 75.2297 179.68 73.6513C179.68 72.0729 179.885 70.7004 180.365 69.4652C180.845 68.2299 181.461 67.4064 182.284 66.926ZM180.913 75.0238L183.449 68.2299C183.312 67.9554 183.106 67.7495 182.9 67.7495C182.695 67.7495 182.489 67.7495 182.284 67.8868C181.736 68.1613 181.324 68.8475 181.05 69.7397C180.776 70.7004 180.639 71.7298 180.639 72.9651V73.8572C180.708 74.2003 180.776 74.5435 180.913 75.0238V75.0238ZM183.723 69.2593L181.187 76.0532C181.324 76.2591 181.461 76.3964 181.667 76.465C181.873 76.5336 182.01 76.465 182.284 76.3277C182.9 75.9846 183.312 75.2983 183.586 74.269C183.86 73.2396 183.997 72.1416 183.997 71.0435C183.928 70.4259 183.86 69.8083 183.723 69.2593Z" fill="#2568EF"/>
<path d="M188.177 43.8677C189 43.3873 189.685 43.456 190.096 44.1422C190.507 44.8285 190.781 45.9951 190.781 47.5735C190.781 49.1519 190.576 50.593 190.096 51.7597C189.616 52.9263 189 53.8184 188.177 54.2988C187.355 54.7792 186.738 54.7106 186.259 54.0243C185.847 53.3381 185.573 52.1714 185.573 50.593C185.573 49.0146 185.779 47.6421 186.259 46.4069C186.67 45.1716 187.286 44.3481 188.177 43.8677V43.8677ZM186.738 51.9655L189.274 45.1716C189.137 44.8971 188.931 44.6912 188.726 44.6912C188.52 44.6912 188.314 44.6912 188.109 44.8285C187.561 45.103 187.149 45.7892 186.875 46.6814C186.601 47.6421 186.464 48.6715 186.464 49.9068V50.7989C186.533 51.142 186.601 51.4852 186.738 51.9655V51.9655ZM189.548 46.201L187.012 52.9949C187.149 53.2008 187.286 53.3381 187.492 53.4067C187.698 53.4753 187.835 53.4067 188.109 53.2694C188.726 52.9263 189.137 52.2401 189.411 51.2107C189.685 50.1813 189.822 49.0833 189.822 47.9853C189.753 47.3676 189.685 46.75 189.548 46.201V46.201Z" fill="#2568EF"/>
<path d="M193.728 69.4652V61.9164C193.454 62.3281 193.18 62.7399 192.974 63.083C192.7 63.4261 192.357 63.8379 191.946 64.2496V63.1516C192.632 62.3281 193.248 61.5046 193.728 60.6125L194.619 60.1321V68.9162L196.401 67.8868V68.9162L191.946 71.524V70.5632L193.728 69.4652Z" fill="#2568EF"/>
<path d="M199.553 26.7113V19.1624C199.279 19.5742 199.005 19.986 198.799 20.3291C198.525 20.6722 198.183 21.084 197.771 21.4957V20.3977C198.457 19.5742 199.074 18.7507 199.553 17.8586L200.444 17.3782V26.2309L202.226 25.2015V26.1623L197.771 28.77V27.7407L199.553 26.7113Z" fill="#2568EF"/>
<path d="M158.984 64.7299C159.807 64.2495 160.492 64.3181 160.903 65.0044C161.314 65.6907 161.589 66.8573 161.589 68.4357C161.589 70.0141 161.383 71.4552 160.903 72.6219C160.424 73.7885 159.807 74.6806 158.984 75.161C158.162 75.6414 157.545 75.5728 157.066 74.8865C156.654 74.2002 156.38 73.0336 156.38 71.4552C156.38 69.8768 156.586 68.5043 157.066 67.269C157.545 66.0338 158.162 65.2103 158.984 64.7299ZM157.545 72.8277L160.081 66.0338C159.944 65.7593 159.738 65.5534 159.533 65.5534C159.327 65.5534 159.121 65.5534 158.916 65.6907C158.368 65.9652 157.957 66.6514 157.682 67.5435C157.408 68.5043 157.271 69.5337 157.271 70.769V71.6611C157.408 72.0042 157.477 72.3474 157.545 72.8277V72.8277ZM160.424 67.0632L157.888 73.8571C158.025 74.063 158.162 74.2003 158.368 74.2689C158.573 74.3375 158.71 74.2689 158.984 74.1316C159.601 73.7885 160.012 73.1022 160.286 72.0729C160.561 71.0435 160.698 69.9455 160.698 68.8474C160.629 68.2298 160.561 67.6122 160.424 67.0632Z" fill="#2568EF"/>
<path d="M164.604 101.856V94.3076C164.33 94.7194 164.056 95.1311 163.85 95.4743C163.576 95.8174 163.233 96.2292 162.822 96.6409V95.5429C163.508 94.7194 164.124 93.8959 164.604 93.0038L165.495 92.5234V101.376L167.277 100.347V101.307L162.822 103.915V102.954L164.604 101.856Z" fill="#2568EF"/>
<path d="M170.429 98.4938V90.945C170.155 91.3567 169.88 91.7685 169.675 92.1116C169.401 92.4547 169.058 92.8665 168.647 93.2783V92.1802C169.332 91.3567 169.949 90.5332 170.429 89.6411L171.32 89.1607V98.0134L173.101 96.984V97.9448L168.647 100.553V99.5918L170.429 98.4938Z" fill="#2568EF"/>
<path d="M176.253 79.1413V71.5925C175.979 72.0043 175.705 72.416 175.5 72.7591C175.225 73.1023 174.883 73.514 174.472 73.9258V72.8278C175.157 72.0042 175.774 71.1807 176.253 70.2886L177.144 69.8082V78.6609L178.926 77.6316V78.5923L174.472 81.2001V80.2393L176.253 79.1413Z" fill="#2568EF"/>
<path d="M182.284 82.5041C183.106 82.0237 183.791 82.0923 184.203 82.7786C184.614 83.4648 184.888 84.6315 184.888 86.2098C184.888 87.7882 184.682 89.2294 184.203 90.396C183.791 91.5627 183.106 92.4548 182.284 92.9352C181.461 93.4155 180.845 93.3469 180.365 92.6607C179.954 91.9744 179.68 90.8078 179.68 89.2294C179.68 87.651 179.885 86.2785 180.365 85.0432C180.845 83.8079 181.461 82.9844 182.284 82.5041ZM180.913 90.6019L183.449 83.8079C183.312 83.5334 183.106 83.3276 182.9 83.3276C182.695 83.3276 182.489 83.3276 182.284 83.4648C181.736 83.7393 181.324 84.4256 181.05 85.3177C180.776 86.2785 180.639 87.3079 180.639 88.5431V89.4353C180.708 89.7098 180.776 90.1215 180.913 90.6019V90.6019ZM183.723 84.8373L181.187 91.6313C181.324 91.8372 181.461 91.9744 181.667 92.043C181.873 92.1117 182.01 92.043 182.284 91.9058C182.9 91.5627 183.312 90.8764 183.586 89.847C183.86 88.8176 183.997 87.7196 183.997 86.6216C183.928 86.004 183.86 85.3863 183.723 84.8373Z" fill="#2568EF"/>
<path d="M187.903 88.4058V80.857C187.629 81.2687 187.355 81.6805 187.149 82.0236C186.875 82.3667 186.533 82.7785 186.122 83.1902V82.0922C186.807 81.2687 187.424 80.4452 187.903 79.5531L188.794 79.0727V87.9254L190.576 86.896V87.8568L186.122 90.4646V89.5038L187.903 88.4058Z" fill="#2568EF"/>
<path d="M194.002 75.7101C194.824 75.2297 195.51 75.2983 195.921 75.9846C196.332 76.6708 196.606 77.8375 196.606 79.4159C196.606 80.9942 196.401 82.4354 195.921 83.602C195.51 84.7687 194.824 85.6608 194.002 86.1412C193.18 86.6216 192.563 86.5529 192.083 85.8667C191.672 85.1804 191.398 84.0138 191.398 82.4354C191.398 80.857 191.604 79.4845 192.083 78.2492C192.494 77.0826 193.111 76.2591 194.002 75.7101ZM192.563 83.8765L195.098 77.0826C194.961 76.8081 194.756 76.6022 194.55 76.6022C194.345 76.6022 194.139 76.6022 193.934 76.7394C193.385 77.0139 192.974 77.7002 192.7 78.5923C192.426 79.5531 192.289 80.5825 192.289 81.8178V82.7099C192.357 82.9844 192.426 83.3961 192.563 83.8765V83.8765ZM195.373 78.0433L192.837 84.8373C192.974 85.0432 193.111 85.1804 193.317 85.249C193.522 85.3177 193.659 85.249 193.934 85.1118C194.55 84.7687 194.961 84.0824 195.236 83.053C195.51 82.0236 195.647 80.9256 195.647 79.8276C195.578 79.21 195.51 78.5923 195.373 78.0433Z" fill="#2568EF"/>
<path d="M199.827 54.8478C200.65 54.3674 201.335 54.4361 201.746 55.1223C202.157 55.8086 202.431 56.9752 202.431 58.5536C202.431 60.132 202.226 61.5731 201.746 62.7398C201.335 63.9064 200.65 64.7985 199.827 65.2789C199.005 65.7593 198.388 65.6907 197.908 65.0044C197.497 64.3182 197.223 63.1515 197.223 61.5731C197.223 59.9947 197.429 58.6222 197.908 57.387C198.32 56.2203 198.936 55.3282 199.827 54.8478ZM198.388 63.0143L200.924 56.2203C200.787 55.9458 200.581 55.7399 200.375 55.7399C200.17 55.7399 199.964 55.7399 199.759 55.8772C199.21 56.1517 198.799 56.838 198.525 57.7301C198.251 58.6909 198.114 59.7202 198.114 60.9555V61.8476C198.251 62.1221 198.251 62.5339 198.388 63.0143V63.0143ZM201.198 57.1811L198.662 63.975C198.799 64.1809 198.936 64.3182 199.142 64.3868C199.348 64.4554 199.485 64.3868 199.759 64.2495C200.375 63.9064 200.787 63.2201 201.061 62.1908C201.335 61.1614 201.472 60.0634 201.472 58.9654C201.403 58.3477 201.335 57.7301 201.198 57.1811Z" fill="#2568EF"/>
<path d="M158.984 111.533C159.807 111.052 160.492 111.121 160.903 111.807C161.314 112.494 161.589 113.66 161.589 115.239C161.589 116.817 161.383 118.258 160.903 119.425C160.492 120.591 159.807 121.483 158.984 121.964C158.162 122.444 157.545 122.376 157.066 121.689C156.654 121.003 156.38 119.836 156.38 118.258C156.38 116.68 156.586 115.307 157.066 114.072C157.545 112.837 158.162 112.013 158.984 111.533ZM157.545 119.699L160.081 112.905C159.944 112.631 159.738 112.425 159.533 112.425C159.327 112.425 159.121 112.425 158.916 112.562C158.368 112.837 157.957 113.523 157.682 114.415C157.408 115.376 157.271 116.405 157.271 117.64V118.533C157.408 118.807 157.477 119.15 157.545 119.699V119.699ZM160.424 113.866L157.888 120.66C158.025 120.866 158.162 121.003 158.368 121.072C158.573 121.14 158.71 121.072 158.984 120.934C159.601 120.591 160.012 119.905 160.286 118.876C160.561 117.846 160.698 116.748 160.698 115.65C160.629 115.033 160.561 114.415 160.424 113.866V113.866Z" fill="#2568EF"/>
<path d="M164.604 117.435V109.886C164.33 110.298 164.056 110.709 163.85 111.052C163.576 111.396 163.233 111.807 162.822 112.219V111.121C163.508 110.298 164.124 109.474 164.604 108.582L165.495 108.102V116.954L167.277 115.925V116.886L162.822 119.493V118.533L164.604 117.435Z" fill="#2568EF"/>
<path d="M170.429 114.072V106.523C170.155 106.935 169.88 107.347 169.675 107.69C169.401 108.033 169.058 108.445 168.647 108.856V107.758C169.332 106.935 169.949 106.111 170.429 105.219L171.32 104.739V113.523L173.101 112.494V113.454L168.647 116.062V115.101L170.429 114.072Z" fill="#2568EF"/>
<path d="M176.459 101.445C177.281 100.964 177.967 101.033 178.378 101.719C178.789 102.405 179.063 103.572 179.063 105.15C179.063 106.729 178.857 108.17 178.378 109.337C177.967 110.503 177.281 111.395 176.459 111.876C175.637 112.356 175.02 112.288 174.54 111.601C174.129 110.915 173.855 109.748 173.855 108.17C173.855 106.592 174.061 105.219 174.54 103.984C175.02 102.749 175.637 101.925 176.459 101.445ZM175.02 109.543L177.555 102.749C177.418 102.474 177.213 102.268 177.007 102.268C176.802 102.268 176.596 102.268 176.391 102.405C175.842 102.68 175.431 103.366 175.157 104.258C174.883 105.219 174.746 106.248 174.746 107.484V108.376C174.883 108.65 174.951 109.062 175.02 109.543V109.543ZM177.898 103.778L175.363 110.572C175.5 110.778 175.637 110.915 175.842 110.984C176.048 111.052 176.185 110.984 176.459 110.846C177.076 110.503 177.487 109.817 177.761 108.788C178.035 107.758 178.172 106.66 178.172 105.562C178.104 104.945 178.035 104.327 177.898 103.778V103.778Z" fill="#2568EF"/>
<path d="M182.284 98.0134C183.106 97.533 183.791 97.6017 184.203 98.2879C184.614 98.9742 184.888 100.141 184.888 101.719C184.888 103.298 184.682 104.739 184.203 105.905C183.791 107.072 183.106 107.964 182.284 108.445C181.461 108.925 180.845 108.856 180.365 108.17C179.885 107.484 179.68 106.317 179.68 104.739C179.68 103.16 179.885 101.788 180.365 100.553C180.845 99.3859 181.461 98.5624 182.284 98.0134ZM180.913 106.18L183.449 99.3859C183.312 99.1114 183.106 98.9055 182.9 98.9055C182.695 98.9055 182.489 98.9055 182.284 99.0428C181.736 99.3173 181.324 100.004 181.05 100.896C180.776 101.856 180.639 102.886 180.639 104.121V105.013C180.708 105.288 180.776 105.699 180.913 106.18V106.18ZM183.723 100.347L181.187 107.141C181.324 107.346 181.461 107.484 181.667 107.552C181.873 107.621 182.01 107.552 182.284 107.415C182.9 107.072 183.312 106.386 183.586 105.356C183.86 104.327 183.997 103.229 183.997 102.131C183.928 101.513 183.86 100.896 183.723 100.347V100.347Z" fill="#2568EF"/>
<path d="M187.903 103.915V96.3664C187.629 96.7782 187.355 97.1899 187.149 97.5331C186.875 97.8762 186.533 98.2879 186.122 98.6997V97.6017C186.807 96.7782 187.424 95.9547 187.903 95.0625L188.794 94.5822V103.435L190.576 102.405V103.366L186.122 105.974V105.013L187.903 103.915Z" fill="#2568EF"/>
<path d="M194.002 91.2881C194.824 90.8077 195.51 90.8764 195.921 91.5626C196.332 92.2489 196.606 93.4155 196.606 94.9939C196.606 96.5723 196.401 98.0135 195.921 99.1801C195.51 100.347 194.824 101.239 194.002 101.719C193.18 102.2 192.563 102.131 192.083 101.445C191.672 100.758 191.398 99.5918 191.398 98.0135C191.398 96.4351 191.604 95.0625 192.083 93.8273C192.494 92.6606 193.111 91.7685 194.002 91.2881V91.2881ZM192.563 99.4546L195.098 92.6606C194.961 92.3861 194.756 92.1803 194.55 92.1803C194.345 92.1803 194.139 92.1803 193.934 92.3175C193.385 92.592 192.974 93.2783 192.7 94.1704C192.426 95.1312 192.289 96.1606 192.289 97.3958V98.288C192.357 98.5625 192.426 98.9742 192.563 99.4546V99.4546ZM195.373 93.6214L192.837 100.415C192.974 100.621 193.111 100.758 193.317 100.827C193.522 100.896 193.659 100.827 193.934 100.69C194.55 100.347 194.961 99.6605 195.236 98.6311C195.51 97.6017 195.647 96.5037 195.647 95.4057C195.578 94.788 195.51 94.1704 195.373 93.6214V93.6214Z" fill="#2568EF"/>
<path d="M199.553 97.19V89.6411C199.279 90.0529 199.005 90.4647 198.799 90.8078C198.525 91.1509 198.183 91.5627 197.771 91.9744V90.8764C198.457 90.0529 199.074 89.2294 199.553 88.3373L200.444 87.8569V96.7096L202.226 95.6802V96.641L197.771 99.2487V98.288L199.553 97.19Z" fill="#2568EF"/>
<path d="M158.984 127.111C159.807 126.63 160.492 126.699 160.903 127.385C161.314 128.072 161.589 129.238 161.589 130.817C161.589 132.395 161.383 133.836 160.903 135.003C160.424 136.169 159.807 137.062 158.984 137.542C158.162 138.022 157.545 137.954 157.066 137.267C156.654 136.581 156.38 135.415 156.38 133.836C156.38 132.258 156.586 130.885 157.066 129.65C157.545 128.415 158.162 127.591 158.984 127.111ZM157.545 135.209L160.081 128.415C159.944 128.14 159.738 127.934 159.533 127.934C159.327 127.934 159.121 127.934 158.916 128.072C158.368 128.346 157.957 129.032 157.682 129.924C157.408 130.885 157.271 131.915 157.271 133.15V134.042C157.408 134.317 157.477 134.728 157.545 135.209V135.209ZM160.424 129.444L157.888 136.238C158.025 136.444 158.162 136.581 158.368 136.65C158.573 136.718 158.71 136.65 158.984 136.513C159.601 136.169 160.012 135.483 160.286 134.454C160.561 133.424 160.698 132.326 160.698 131.228C160.629 130.611 160.561 129.993 160.424 129.444V129.444Z" fill="#2568EF"/>
<path d="M164.604 133.013V125.464C164.33 125.875 164.056 126.287 163.85 126.63C163.576 126.973 163.233 127.385 162.822 127.797V126.699C163.508 125.875 164.124 125.052 164.604 124.16L165.495 123.679V132.532L167.277 131.503V132.464L162.822 135.071V134.111L164.604 133.013Z" fill="#2568EF"/>
<path d="M170.429 129.65V122.101C170.155 122.513 169.88 122.925 169.675 123.268C169.401 123.611 169.058 124.023 168.647 124.434V123.336C169.332 122.513 169.949 121.689 170.429 120.797L171.32 120.317V129.17L173.101 128.14V129.101L168.647 131.709V130.679L170.429 129.65Z" fill="#2568EF"/>
<path d="M176.459 116.954C177.281 116.474 177.967 116.542 178.378 117.229C178.789 117.915 179.063 119.082 179.063 120.66C179.063 122.238 178.857 123.679 178.378 124.846C177.967 126.013 177.281 126.905 176.459 127.385C175.637 127.866 175.02 127.797 174.54 127.111C174.129 126.424 173.855 125.258 173.855 123.679C173.855 122.101 174.061 120.729 174.54 119.493C175.02 118.327 175.637 117.435 176.459 116.954ZM175.02 125.121L177.555 118.327C177.418 118.052 177.213 117.846 177.007 117.846C176.802 117.846 176.596 117.846 176.391 117.984C175.842 118.258 175.431 118.944 175.157 119.836C174.883 120.797 174.746 121.827 174.746 123.062V123.954C174.883 124.228 174.951 124.64 175.02 125.121V125.121ZM177.898 119.287L175.363 126.081C175.5 126.287 175.637 126.424 175.842 126.493C176.048 126.562 176.185 126.493 176.459 126.356C177.076 126.013 177.487 125.326 177.761 124.297C178.035 123.268 178.172 122.17 178.172 121.072C178.104 120.454 178.035 119.836 177.898 119.287V119.287Z" fill="#2568EF"/>
<path d="M182.079 122.856V115.307C181.804 115.719 181.53 116.131 181.325 116.474C181.051 116.817 180.708 117.229 180.297 117.64V116.542C180.982 115.719 181.599 114.895 182.079 114.003L182.969 113.523V122.376L184.751 121.346V122.307L180.297 124.915V123.954L182.079 122.856Z" fill="#2568EF"/>
<path d="M187.903 119.493V111.945C187.629 112.356 187.355 112.768 187.149 113.111C186.875 113.454 186.533 113.866 186.122 114.278V113.18C186.807 112.356 187.424 111.533 187.903 110.641L188.794 110.16V119.013L190.576 117.984V118.944L186.122 121.552V120.591L187.903 119.493Z" fill="#2568EF"/>
<path d="M193.728 116.131V108.582C193.454 108.994 193.18 109.405 192.974 109.749C192.7 110.092 192.357 110.503 191.946 110.915V109.817C192.632 108.994 193.248 108.17 193.728 107.278L194.619 106.798V115.65L196.401 114.621V115.582L191.946 118.189V117.229L193.728 116.131Z" fill="#2568EF"/>
<path d="M199.827 103.503C200.65 103.023 201.335 103.092 201.746 103.778C202.157 104.464 202.431 105.631 202.431 107.209C202.431 108.788 202.226 110.229 201.746 111.395C201.335 112.562 200.65 113.454 199.827 113.935C199.005 114.415 198.388 114.346 197.908 113.66C197.497 112.974 197.223 111.807 197.223 110.229C197.223 108.65 197.429 107.278 197.908 106.043C198.32 104.807 198.936 103.984 199.827 103.503ZM198.388 111.67L200.924 104.876C200.787 104.601 200.581 104.396 200.375 104.396C200.17 104.396 199.964 104.396 199.759 104.533C199.21 104.807 198.799 105.494 198.525 106.386C198.251 107.347 198.114 108.376 198.114 109.611V110.503C198.251 110.778 198.251 111.121 198.388 111.67V111.67ZM201.198 105.837L198.662 112.631C198.799 112.837 198.936 112.974 199.142 113.042C199.348 113.111 199.485 113.042 199.759 112.905C200.375 112.562 200.787 111.876 201.061 110.846C201.335 109.817 201.472 108.719 201.472 107.621C201.403 107.003 201.335 106.386 201.198 105.837V105.837Z" fill="#2568EF"/>
<path d="M158.984 142.689C159.807 142.208 160.492 142.277 160.903 142.963C161.314 143.65 161.589 144.816 161.589 146.395C161.589 147.973 161.383 149.414 160.903 150.581C160.492 151.747 159.807 152.64 158.984 153.12C158.162 153.6 157.545 153.532 157.066 152.845C156.654 152.159 156.38 150.992 156.38 149.414C156.38 147.836 156.586 146.463 157.066 145.228C157.545 143.993 158.162 143.169 158.984 142.689ZM157.545 150.787L160.081 143.993C159.944 143.718 159.738 143.512 159.533 143.512C159.327 143.512 159.121 143.512 158.916 143.65C158.368 143.924 157.957 144.61 157.682 145.502C157.408 146.463 157.271 147.493 157.271 148.728V149.62C157.408 149.894 157.477 150.306 157.545 150.787V150.787ZM160.424 145.022L157.888 151.816C158.025 152.022 158.162 152.159 158.368 152.228C158.573 152.296 158.71 152.228 158.984 152.09C159.601 151.747 160.012 151.061 160.286 150.032C160.561 149.002 160.698 147.904 160.698 146.806C160.629 146.12 160.561 145.571 160.424 145.022V145.022Z" fill="#2568EF"/>
<path d="M164.604 148.522V140.973C164.33 141.385 164.056 141.797 163.85 142.14C163.576 142.483 163.233 142.895 162.822 143.306V142.208C163.508 141.385 164.124 140.561 164.604 139.669L165.495 139.189V148.042L167.277 147.012V147.973L162.822 150.581V149.62L164.604 148.522Z" fill="#2568EF"/>
<path d="M170.429 145.159V137.611C170.155 138.022 169.88 138.434 169.675 138.777C169.401 139.12 169.058 139.532 168.647 139.944V138.914C169.332 138.091 169.949 137.267 170.429 136.375L171.32 135.895V144.748L173.101 143.718V144.679L168.647 147.287V146.326L170.429 145.159Z" fill="#2568EF"/>
<path d="M176.459 132.532C177.281 132.052 177.967 132.12 178.378 132.807C178.789 133.493 179.063 134.66 179.063 136.238C179.063 137.816 178.857 139.258 178.378 140.424C177.967 141.591 177.281 142.483 176.459 142.963C175.637 143.444 175.02 143.375 174.54 142.689C174.129 142.003 173.855 140.836 173.855 139.258C173.855 137.679 174.061 136.307 174.54 135.071C175.02 133.836 175.637 133.013 176.459 132.532ZM175.02 140.699L177.555 133.905C177.418 133.63 177.213 133.424 177.007 133.424C176.802 133.424 176.596 133.424 176.391 133.562C175.842 133.836 175.431 134.522 175.157 135.414C174.883 136.375 174.746 137.405 174.746 138.64V139.532C174.883 139.807 174.951 140.218 175.02 140.699V140.699ZM177.898 134.865L175.363 141.659C175.5 141.865 175.637 142.003 175.842 142.071C176.048 142.14 176.185 142.071 176.459 141.934C177.076 141.591 177.487 140.905 177.761 139.875C178.035 138.846 178.172 137.748 178.172 136.65C178.104 136.032 178.035 135.414 177.898 134.865V134.865Z" fill="#2568EF"/>
<path d="M182.284 129.17C183.106 128.689 183.791 128.758 184.203 129.444C184.614 130.13 184.888 131.297 184.888 132.875C184.888 134.454 184.682 135.895 184.203 137.062C183.791 138.228 183.106 139.12 182.284 139.601C181.461 140.081 180.845 140.012 180.365 139.326C179.885 138.64 179.68 137.473 179.68 135.895C179.68 134.317 179.885 132.944 180.365 131.709C180.845 130.473 181.461 129.65 182.284 129.17ZM180.913 137.336L183.449 130.542C183.312 130.268 183.106 130.062 182.9 130.062C182.695 130.062 182.489 130.062 182.284 130.199C181.736 130.473 181.324 131.16 181.05 132.052C180.776 133.013 180.639 134.042 180.639 135.277V136.169C180.708 136.444 180.776 136.856 180.913 137.336V137.336ZM183.723 131.503L181.187 138.297C181.324 138.503 181.461 138.64 181.667 138.709C181.873 138.777 182.01 138.709 182.284 138.571C182.9 138.228 183.312 137.542 183.586 136.513C183.86 135.483 183.997 134.385 183.997 133.287C183.928 132.67 183.86 132.052 183.723 131.503V131.503Z" fill="#2568EF"/>
<path d="M188.177 125.807C189 125.326 189.685 125.395 190.096 126.081C190.507 126.768 190.781 127.934 190.781 129.513C190.781 131.091 190.576 132.532 190.096 133.699C189.616 134.865 189 135.758 188.177 136.238C187.355 136.718 186.738 136.65 186.259 135.963C185.847 135.277 185.573 134.111 185.573 132.532C185.573 130.954 185.779 129.581 186.259 128.346C186.67 127.111 187.286 126.287 188.177 125.807ZM186.738 133.973L189.274 127.179C189.137 126.905 188.931 126.699 188.726 126.699C188.52 126.699 188.314 126.699 188.109 126.836C187.561 127.111 187.149 127.797 186.875 128.689C186.601 129.65 186.464 130.679 186.464 131.915V132.807C186.533 133.081 186.601 133.424 186.738 133.973V133.973ZM189.548 128.14L187.012 134.934C187.149 135.14 187.286 135.277 187.492 135.346C187.698 135.414 187.835 135.346 188.109 135.209C188.726 134.865 189.137 134.179 189.411 133.15C189.685 132.12 189.822 131.022 189.822 129.924C189.753 129.307 189.685 128.689 189.548 128.14V128.14Z" fill="#2568EF"/>
<path d="M193.728 131.709V124.16C193.454 124.572 193.18 124.983 192.974 125.326C192.7 125.67 192.357 126.081 191.946 126.493V125.395C192.632 124.572 193.248 123.748 193.728 122.856L194.619 122.376V131.228L196.401 130.199V131.16L191.946 133.767V132.738L193.728 131.709Z" fill="#2568EF"/>
<path d="M199.553 128.346V120.797C199.279 121.209 199.005 121.621 198.799 121.964C198.525 122.307 198.183 122.719 197.771 123.13V122.032C198.457 121.209 199.074 120.385 199.553 119.493L200.444 119.013V127.866L202.226 126.836V127.797L197.771 130.405V129.444L199.553 128.346Z" fill="#2568EF"/>
<path d="M158.984 158.198C159.807 157.718 160.492 157.787 160.903 158.473C161.314 159.159 161.589 160.326 161.589 161.904C161.589 163.482 161.383 164.924 160.903 166.09C160.492 167.257 159.807 168.149 158.984 168.629C158.162 169.11 157.545 169.041 157.066 168.355C156.654 167.669 156.38 166.502 156.38 164.924C156.38 163.345 156.586 161.973 157.066 160.737C157.545 159.571 158.162 158.679 158.984 158.198ZM157.545 166.365L160.081 159.571C159.944 159.296 159.738 159.09 159.533 159.09C159.327 159.09 159.121 159.09 158.916 159.228C158.368 159.502 157.957 160.188 157.682 161.081C157.408 162.041 157.271 163.071 157.271 164.306V165.198C157.408 165.473 157.477 165.884 157.545 166.365V166.365ZM160.424 160.532L157.888 167.325C158.025 167.531 158.162 167.669 158.368 167.737C158.573 167.806 158.71 167.737 158.984 167.6C159.601 167.257 160.012 166.571 160.286 165.541C160.561 164.512 160.698 163.414 160.698 162.316C160.629 161.698 160.561 161.081 160.424 160.532V160.532Z" fill="#2568EF"/>
<path d="M164.604 164.1V156.551C164.33 156.963 164.056 157.375 163.85 157.718C163.576 158.061 163.233 158.473 162.822 158.885V157.786C163.508 156.963 164.124 156.139 164.604 155.247L165.495 154.767V163.62L167.277 162.59V163.551L162.822 166.159V165.198L164.604 164.1Z" fill="#2568EF"/>
<path d="M170.429 160.737V153.189C170.155 153.6 169.88 154.012 169.675 154.355C169.401 154.698 169.058 155.11 168.647 155.522V154.424C169.332 153.6 169.949 152.777 170.429 151.885L171.32 151.404V160.257L173.101 159.228V160.188L168.647 162.796V161.835L170.429 160.737Z" fill="#2568EF"/>
<path d="M176.459 148.11C177.281 147.63 177.967 147.698 178.378 148.385C178.789 149.071 179.063 150.238 179.063 151.816C179.063 153.394 178.857 154.836 178.378 156.002C177.967 157.169 177.281 158.061 176.459 158.541C175.637 159.022 175.02 158.953 174.54 158.267C174.129 157.581 173.855 156.414 173.855 154.836C173.855 153.257 174.061 151.885 174.54 150.649C175.02 149.414 175.637 148.591 176.459 148.11ZM175.02 156.277L177.555 149.483C177.418 149.208 177.213 149.002 177.007 149.002C176.802 149.002 176.596 149.002 176.391 149.14C175.842 149.414 175.431 150.1 175.157 150.992C174.883 151.953 174.746 152.983 174.746 154.218V155.11C174.883 155.385 174.951 155.796 175.02 156.277V156.277ZM177.898 150.443L175.363 157.237C175.5 157.443 175.637 157.581 175.842 157.649C176.048 157.718 176.185 157.649 176.459 157.512C177.076 157.169 177.487 156.483 177.761 155.453C178.035 154.424 178.172 153.326 178.172 152.228C178.104 151.61 178.035 150.992 177.898 150.443V150.443Z" fill="#2568EF"/>
<path d="M182.079 154.012V146.463C181.804 146.875 181.53 147.287 181.325 147.63C181.051 147.973 180.708 148.385 180.297 148.797V147.698C180.982 146.875 181.599 146.051 182.079 145.159L182.969 144.679V153.532L184.751 152.502V153.463L180.297 156.071V155.11L182.079 154.012Z" fill="#2568EF"/>
<path d="M188.177 141.385C189 140.905 189.685 140.973 190.096 141.659C190.507 142.346 190.781 143.512 190.781 145.091C190.781 146.669 190.576 148.11 190.096 149.277C189.616 150.443 189 151.336 188.177 151.816C187.355 152.296 186.738 152.228 186.259 151.542C185.847 150.855 185.573 149.689 185.573 148.11C185.573 146.532 185.779 145.159 186.259 143.924C186.67 142.689 187.286 141.865 188.177 141.385ZM186.738 149.483L189.274 142.689C189.137 142.414 188.931 142.208 188.726 142.208C188.52 142.208 188.314 142.208 188.109 142.346C187.561 142.62 187.149 143.306 186.875 144.199C186.601 145.159 186.464 146.189 186.464 147.424V148.316C186.533 148.591 186.601 149.002 186.738 149.483V149.483ZM189.548 143.718L187.012 150.512C187.149 150.718 187.286 150.855 187.492 150.924C187.698 150.992 187.835 150.924 188.109 150.787C188.726 150.443 189.137 149.757 189.411 148.728C189.685 147.698 189.822 146.6 189.822 145.502C189.753 144.885 189.685 144.267 189.548 143.718V143.718Z" fill="#2568EF"/>
<path d="M194.002 138.022C194.824 137.542 195.51 137.611 195.921 138.297C196.332 138.983 196.606 140.15 196.606 141.728C196.606 143.307 196.401 144.748 195.921 145.914C195.51 147.081 194.824 147.973 194.002 148.453C193.18 148.934 192.563 148.865 192.083 148.179C191.672 147.493 191.398 146.326 191.398 144.748C191.398 143.169 191.604 141.797 192.083 140.561C192.494 139.326 193.111 138.503 194.002 138.022ZM192.563 146.12L195.098 139.326C194.961 139.052 194.756 138.846 194.55 138.846C194.345 138.846 194.139 138.846 193.934 138.983C193.385 139.258 192.974 139.944 192.7 140.836C192.426 141.797 192.289 142.826 192.289 144.061V144.954C192.357 145.228 192.426 145.64 192.563 146.12V146.12ZM195.373 140.356L192.837 147.15C192.974 147.355 193.111 147.493 193.317 147.561C193.522 147.63 193.659 147.561 193.934 147.424C194.55 147.081 194.961 146.395 195.236 145.365C195.51 144.336 195.647 143.238 195.647 142.14C195.578 141.522 195.51 140.905 195.373 140.356V140.356Z" fill="#2568EF"/>
<path d="M199.553 143.924V136.375C199.279 136.787 199.005 137.199 198.799 137.542C198.525 137.885 198.183 138.297 197.771 138.709V137.611C198.457 136.787 199.074 135.964 199.553 135.071L200.444 134.591V143.444L202.226 142.414V143.375L197.771 145.983V145.022L199.553 143.924Z" fill="#2568EF"/>
<path d="M158.984 173.776C159.807 173.296 160.492 173.365 160.903 174.051C161.314 174.737 161.589 175.904 161.589 177.482C161.589 179.06 161.383 180.502 160.903 181.668C160.424 182.835 159.807 183.727 158.984 184.207C158.162 184.688 157.545 184.619 157.066 183.933C156.654 183.247 156.38 182.08 156.38 180.502C156.38 178.923 156.586 177.551 157.066 176.315C157.545 175.08 158.162 174.257 158.984 173.776ZM157.545 181.943L160.081 175.149C159.944 174.874 159.738 174.668 159.533 174.668C159.327 174.668 159.121 174.668 158.916 174.806C158.368 175.08 157.957 175.766 157.682 176.659C157.408 177.619 157.271 178.649 157.271 179.884V180.776C157.408 181.051 157.477 181.462 157.545 181.943V181.943ZM160.424 176.11L157.888 182.904C158.025 183.109 158.162 183.247 158.368 183.315C158.573 183.384 158.71 183.315 158.984 183.178C159.601 182.835 160.012 182.149 160.286 181.119C160.561 180.09 160.698 178.992 160.698 177.894C160.629 177.276 160.561 176.659 160.424 176.11V176.11Z" fill="#2568EF"/>
<path d="M164.604 179.678V172.129C164.33 172.541 164.056 172.953 163.85 173.296C163.576 173.639 163.233 174.051 162.822 174.463V173.365C163.508 172.541 164.124 171.717 164.604 170.825L165.495 170.345V179.198L167.277 178.168V179.129L162.822 181.737V180.776L164.604 179.678Z" fill="#2568EF"/>
<path d="M170.429 176.315V168.767C170.155 169.178 169.88 169.59 169.675 169.933C169.401 170.276 169.058 170.688 168.647 171.1V170.002C169.332 169.178 169.949 168.355 170.429 167.463L171.32 166.982V175.835L173.101 174.806V175.766L168.647 178.374V177.345L170.429 176.315Z" fill="#2568EF"/>
<path d="M176.459 163.688C177.281 163.208 177.967 163.277 178.378 163.963C178.789 164.649 179.063 165.816 179.063 167.394C179.063 168.972 178.857 170.414 178.378 171.58C177.967 172.747 177.281 173.639 176.459 174.119C175.637 174.6 175.02 174.531 174.54 173.845C174.129 173.159 173.855 171.992 173.855 170.414C173.855 168.835 174.061 167.463 174.54 166.227C175.02 164.992 175.637 164.169 176.459 163.688ZM175.02 171.786L177.555 164.992C177.418 164.718 177.213 164.512 177.007 164.512C176.802 164.512 176.596 164.512 176.391 164.649C175.842 164.924 175.431 165.61 175.157 166.502C174.883 167.463 174.746 168.492 174.746 169.727V170.62C174.883 170.963 174.951 171.306 175.02 171.786V171.786ZM177.898 166.022L175.363 172.816C175.5 173.021 175.637 173.159 175.842 173.227C176.048 173.296 176.185 173.227 176.459 173.09C177.076 172.747 177.487 172.061 177.761 171.031C178.035 170.002 178.172 168.904 178.172 167.806C178.104 167.188 178.035 166.571 177.898 166.022V166.022Z" fill="#2568EF"/>
<path d="M182.079 169.59V162.041C181.804 162.453 181.53 162.865 181.325 163.208C181.051 163.551 180.708 163.963 180.297 164.375V163.277C180.982 162.453 181.599 161.63 182.079 160.737L182.969 160.257V169.11L184.751 168.08V169.041L180.297 171.649V170.688L182.079 169.59Z" fill="#2568EF"/>
<path d="M187.903 166.228V158.679C187.629 159.09 187.355 159.502 187.149 159.845C186.875 160.188 186.533 160.6 186.122 161.012V159.914C186.807 159.09 187.424 158.267 187.903 157.375L188.794 156.894V165.679L190.576 164.649V165.61L186.122 168.218V167.257L187.903 166.228Z" fill="#2568EF"/>
<path d="M194.002 153.532C194.824 153.051 195.51 153.12 195.921 153.806C196.332 154.493 196.606 155.659 196.606 157.238C196.606 158.816 196.401 160.257 195.921 161.424C195.51 162.59 194.824 163.482 194.002 163.963C193.18 164.443 192.563 164.375 192.083 163.688C191.672 163.002 191.398 161.835 191.398 160.257C191.398 158.679 191.604 157.306 192.083 156.071C192.494 154.904 193.111 154.012 194.002 153.532ZM192.563 161.698L195.098 154.904C194.961 154.63 194.756 154.424 194.55 154.424C194.345 154.424 194.139 154.424 193.934 154.561C193.385 154.836 192.974 155.522 192.7 156.414C192.426 157.375 192.289 158.404 192.289 159.639V160.532C192.357 160.806 192.426 161.218 192.563 161.698V161.698ZM195.373 155.865L192.837 162.659C192.974 162.865 193.111 163.002 193.317 163.071C193.522 163.139 193.659 163.071 193.934 162.933C194.55 162.59 194.961 161.904 195.236 160.875C195.51 159.845 195.647 158.747 195.647 157.649C195.578 157.032 195.51 156.414 195.373 155.865V155.865Z" fill="#2568EF"/>
<path d="M199.827 150.169C200.65 149.689 201.335 149.757 201.746 150.443C202.157 151.13 202.431 152.296 202.431 153.875C202.431 155.453 202.226 156.894 201.746 158.061C201.335 159.228 200.65 160.12 199.827 160.6C199.005 161.08 198.388 161.012 197.908 160.326C197.497 159.639 197.223 158.473 197.223 156.894C197.223 155.316 197.429 153.943 197.908 152.708C198.32 151.541 198.936 150.649 199.827 150.169ZM198.388 158.335L200.924 151.541C200.787 151.267 200.581 151.061 200.375 151.061C200.17 151.061 199.964 151.061 199.759 151.198C199.21 151.473 198.799 152.159 198.525 153.051C198.251 154.012 198.114 155.041 198.114 156.277V157.169C198.251 157.443 198.251 157.855 198.388 158.335V158.335ZM201.198 152.502L198.662 159.296C198.799 159.502 198.936 159.639 199.142 159.708C199.348 159.777 199.485 159.708 199.759 159.571C200.375 159.228 200.787 158.541 201.061 157.512C201.335 156.483 201.472 155.385 201.472 154.287C201.403 153.669 201.335 153.051 201.198 152.502V152.502Z" fill="#2568EF"/>
<path d="M341.128 266.816H331.384V276.336H324.16V266.816H314.472V259.984H324.16V250.464H331.384V259.984H341.128V266.816Z" fill="#2568EF"/>
<path d="M485.414 372.838C483.224 372.873 481.476 374.676 481.511 376.867C481.545 379.058 483.349 380.805 485.54 380.77C487.716 380.736 489.458 378.954 489.444 376.778C489.419 374.577 487.615 372.814 485.415 372.838C485.415 372.838 485.415 372.838 485.414 372.838ZM485.414 379.923C483.679 380.002 482.209 378.659 482.13 376.924C482.051 375.189 483.394 373.718 485.129 373.639C486.863 373.561 488.334 374.903 488.413 376.638C488.416 376.693 488.417 376.749 488.416 376.805C488.475 378.466 487.176 379.861 485.515 379.921C485.481 379.922 485.448 379.923 485.414 379.923Z" fill="#2496ED"/>
<path d="M486.297 376.885V376.831C486.737 376.747 487.067 376.383 487.111 375.938C487.127 375.597 486.985 375.267 486.726 375.045C486.307 374.823 485.833 374.723 485.36 374.759C484.853 374.752 484.348 374.794 483.85 374.884V378.815H484.743V377.234H485.172C485.681 377.234 485.914 377.421 485.994 377.859C486.047 378.191 486.149 378.513 486.298 378.815H487.289C487.135 378.507 487.036 378.174 486.994 377.832C486.954 377.405 486.678 377.035 486.279 376.876L486.297 376.885ZM485.198 376.59H484.761V375.456C484.93 375.435 485.101 375.435 485.27 375.456C485.842 375.456 486.11 375.697 486.11 376.054C486.11 376.412 485.699 376.635 485.217 376.635" fill="#2496ED"/>
<path d="M535.954 306.397C535.391 305.95 530.138 301.983 519.06 301.983C516.134 301.996 513.215 302.247 510.331 302.734C508.187 288.037 496.036 280.872 495.491 280.55L492.517 278.835L490.56 281.658C488.11 285.451 486.321 289.632 485.271 294.023C483.288 302.412 484.494 310.292 488.755 317.028C483.609 319.896 475.354 320.602 473.684 320.664H337.011C333.441 320.669 330.544 323.554 330.525 327.123C330.365 339.097 332.394 350.999 336.511 362.243C341.219 374.59 348.223 383.685 357.336 389.251C367.548 395.505 384.138 399.078 402.944 399.078C411.44 399.105 419.92 398.336 428.272 396.782C439.883 394.65 451.056 390.592 461.328 384.775C469.792 379.873 477.41 373.638 483.887 366.308C494.715 354.05 501.165 340.399 505.963 328.267C506.606 328.267 507.249 328.267 507.874 328.267C519.73 328.267 527.02 323.523 531.041 319.547C533.712 317.012 535.798 313.923 537.151 310.497L538 308.014L535.954 306.397Z" fill="#2496ED"/>
<path d="M349.697 316.646H368.011C368.895 316.646 369.611 315.93 369.611 315.047V298.733C369.616 297.85 368.904 297.13 368.02 297.125C368.018 297.125 368.014 297.125 368.011 297.125H349.697C348.813 297.125 348.098 297.841 348.098 298.724C348.098 298.727 348.098 298.73 348.098 298.733V315.047C348.098 315.93 348.813 316.646 349.697 316.646Z" fill="#2496ED"/>
<path d="M374.943 316.646H393.258C394.141 316.646 394.857 315.93 394.857 315.047V298.733C394.862 297.85 394.15 297.13 393.267 297.125C393.264 297.125 393.261 297.125 393.258 297.125H374.943C374.055 297.125 373.335 297.845 373.335 298.733V315.047C373.34 315.931 374.059 316.646 374.943 316.646Z" fill="#2496ED"/>
<path d="M400.597 316.646H418.912C419.796 316.646 420.511 315.93 420.511 315.047V298.733C420.516 297.85 419.804 297.13 418.921 297.125C418.918 297.125 418.915 297.125 418.912 297.125H400.597C399.714 297.125 398.998 297.841 398.998 298.724C398.998 298.727 398.998 298.73 398.998 298.733V315.047C398.998 315.93 399.714 316.646 400.597 316.646Z" fill="#2496ED"/>
<path d="M425.905 316.646H444.22C445.105 316.646 445.823 315.932 445.828 315.047V298.733C445.828 297.845 445.108 297.125 444.22 297.125H425.905C425.022 297.125 424.306 297.841 424.306 298.724C424.306 298.727 424.306 298.73 424.306 298.733V315.047C424.306 315.93 425.022 316.646 425.905 316.646Z" fill="#2496ED"/>
<path d="M374.943 293.18H393.258C394.142 293.176 394.857 292.457 394.857 291.572V275.259C394.857 274.376 394.141 273.66 393.258 273.66H374.943C374.059 273.66 373.34 274.374 373.335 275.259V291.572C373.34 292.459 374.057 293.176 374.943 293.18Z" fill="#2496ED"/>
<path d="M400.597 293.18H418.912C419.796 293.176 420.511 292.457 420.511 291.572V275.259C420.511 274.376 419.795 273.66 418.912 273.66H400.597C399.714 273.66 398.998 274.376 398.998 275.259V291.572C398.998 292.457 399.713 293.176 400.597 293.18Z" fill="#2496ED"/>
<path d="M425.905 293.18H444.22C445.106 293.176 445.823 292.459 445.828 291.572V275.259C445.823 274.374 445.105 273.66 444.22 273.66H425.905C425.022 273.66 424.306 274.376 424.306 275.259V291.572C424.306 292.457 425.021 293.176 425.905 293.18Z" fill="#2496ED"/>
<path d="M425.905 269.715H444.22C445.105 269.715 445.823 269.001 445.828 268.116V251.794C445.823 250.909 445.105 250.195 444.22 250.195H425.905C425.022 250.195 424.306 250.91 424.306 251.794V268.116C424.306 268.999 425.022 269.715 425.905 269.715Z" fill="#2496ED"/>
<path d="M451.426 316.646H469.741C470.626 316.646 471.344 315.932 471.349 315.047V298.733C471.349 297.845 470.629 297.125 469.741 297.125H451.426C450.543 297.125 449.827 297.841 449.827 298.724C449.827 298.727 449.827 298.73 449.827 298.733V315.047C449.827 315.93 450.543 316.646 451.426 316.646Z" fill="#2496ED"/>
<defs>
<linearGradient id="paint0_linear" x1="177.948" y1="240.383" x2="177.948" y2="129.666" gradientUnits="userSpaceOnUse">
<stop stop-color="#66FF66" stop-opacity="0"/>
<stop offset="0.2962" stop-color="#66FD66" stop-opacity="0.030787"/>
<stop offset="1" stop-color="#66CC66" stop-opacity="0.5"/>
</linearGradient>
</defs>
</svg>
