<svg width="277" height="202" viewBox="0 0 277 202" fill="none" xmlns="http://www.w3.org/2000/svg">
<path d="M0.5 94.0064L138.451 1.58938L276.401 94.0064V107.725L138.451 200.142L0.5 107.725V94.0064ZM138.451 74.0455C124.54 74.0455 111.953 77.8029 102.829 83.9139C93.7074 90.0228 88.0014 98.5217 88.0014 107.991C88.0014 117.462 93.7331 125.961 102.866 132.069C112.003 138.18 124.59 141.937 138.451 141.937C152.312 141.937 164.899 138.18 174.035 132.069C183.168 125.961 188.9 117.462 188.9 107.991C188.9 98.5209 183.168 90.0221 174.035 83.9137C164.899 77.8031 152.312 74.0455 138.451 74.0455Z" stroke="#66CC66"/>
<path d="M0.89835 93.7395L138.451 1.58938L276.003 93.7395L138.451 185.89L0.89835 93.7395ZM138.451 59.7936C124.54 59.7936 111.953 63.5511 102.829 69.662C93.7074 75.7709 88.0014 84.2698 88.0014 93.7395C88.0014 103.21 93.7331 111.709 102.866 117.817C112.003 123.928 124.59 127.685 138.451 127.685C152.361 127.685 164.948 123.928 174.072 117.817C183.194 111.708 188.9 103.209 188.9 93.7395C188.9 84.269 183.168 75.7703 174.035 69.6618C164.899 63.5512 152.312 59.7936 138.451 59.7936Z" stroke="#66FF66"/>
<path d="M0.89835 108.336L138.451 16.1861L276.003 108.336L138.451 200.486L0.89835 108.336ZM138.451 59.7937C124.54 59.7937 111.953 63.5511 102.829 69.662C93.7074 75.771 88.0014 84.2698 88.0014 93.7395C88.0014 103.21 93.7331 111.709 102.866 117.817C112.003 123.928 124.59 127.685 138.451 127.685C152.361 127.685 164.948 123.928 174.072 117.817C183.194 111.708 188.9 103.209 188.9 93.7395C188.9 84.269 183.168 75.7703 174.035 69.6618C164.899 63.5512 152.312 59.7937 138.451 59.7937Z" stroke="url(#paint0_linear)"/>
<path opacity="0.4" d="M276.401 107.399L138.95 15.3173V1.92434L276.401 94.0064V107.399Z" stroke="#66CC66"/>
<defs>
<linearGradient id="paint0_linear" x1="138.423" y1="201.056" x2="138.423" y2="15.6277" gradientUnits="userSpaceOnUse">
<stop stop-color="#66FF66" stop-opacity="0"/>
<stop offset="0.2962" stop-color="#66FD66" stop-opacity="0.030787"/>
<stop offset="1" stop-color="#66CC66" stop-opacity="0.5"/>
</linearGradient>
</defs>
</svg>
