<svg width="277" height="173" viewBox="0 0 277 173" fill="none" xmlns="http://www.w3.org/2000/svg">
<path d="M138.451 0L276.901 80.0625V92.3645L138.451 172.427L0 92.3645V80.0625L138.451 0ZM138.451 63.4944C110.8 63.4944 88.5014 76.3917 88.5014 92.3645C88.5014 108.337 110.899 121.235 138.451 121.235C166.002 121.235 188.4 108.337 188.4 92.3645C188.4 76.3917 166.002 63.4944 138.451 63.4944Z" fill="#66CC66"/>
<path d="M138.451 0L276.901 80.0624L138.451 160.125L0 80.0624L138.451 0ZM138.451 51.1923C110.8 51.1923 88.5014 64.0896 88.5014 80.0624C88.5014 96.0353 110.899 108.933 138.451 108.933C166.101 108.933 188.4 96.0353 188.4 80.0624C188.4 64.0896 166.002 51.1923 138.451 51.1923V51.1923Z" fill="#66FF66"/>
<path d="M138.451 12.5996L276.901 92.6621L138.451 172.725L0 92.6621L138.451 12.5996ZM138.451 51.1923C110.8 51.1923 88.5014 64.0896 88.5014 80.0624C88.5014 96.0352 110.899 108.933 138.451 108.933C166.101 108.933 188.4 96.0352 188.4 80.0624C188.4 64.0896 166.002 51.1923 138.451 51.1923Z" fill="url(#paint0_linear)"/>
<path opacity="0.4" d="M138.45 0V12.5997L276.901 92.6621V80.0624L138.45 0Z" fill="#66CC66"/>
<defs>
<linearGradient id="paint0_linear" x1="138.423" y1="172.697" x2="138.423" y2="12.6371" gradientUnits="userSpaceOnUse">
<stop stop-color="#66FF66" stop-opacity="0"/>
<stop offset="0.2962" stop-color="#66FD66" stop-opacity="0.030787"/>
<stop offset="1" stop-color="#66CC66" stop-opacity="0.5"/>
</linearGradient>
</defs>
</svg>
