<svg width="64" height="64" viewBox="0 0 64 64" fill="none" xmlns="http://www.w3.org/2000/svg">
<path d="M0 0V64H64V0H0ZM32 49.0667C22.5067 49.0667 14.8267 41.3867 14.8267 31.8933C14.8267 22.4 22.5067 14.72 32 14.72C41.4933 14.72 49.1733 22.4 49.1733 31.8933C49.1733 41.3867 41.4933 49.0667 32 49.0667Z" fill="#66FF66"/>
<path d="M46.5067 49.1733C55.9913 49.1733 63.68 41.4846 63.68 32C63.68 22.5154 55.9913 14.8267 46.5067 14.8267C37.0221 14.8267 29.3333 22.5154 29.3333 32C29.3333 41.4846 37.0221 49.1733 46.5067 49.1733Z" fill="white" fill-opacity="0.4"/>
<path d="M46.5066 14.8267C43.8399 14.8267 41.2799 15.4667 39.1466 16.5333C44.9066 19.3067 48.8533 25.1733 48.8533 32C48.8533 38.8267 44.9066 44.6933 39.1466 47.4667C41.3866 48.5333 43.9466 49.1733 46.5066 49.1733C55.9999 49.1733 63.6799 41.4933 63.6799 32C63.6799 22.5067 55.8933 14.8267 46.5066 14.8267Z" fill="#0F6860"/>
</svg>
